<svg id="08f29629-49b7-448a-8ca0-48acb7147e1f" data-name="图层 1" xmlns="http://www.w3.org/2000/svg" viewBox="0 0 803 192.5"><defs><style>.e4f07a69-bedd-4e11-a7c0-0f0c65aeee3e{fill:#fff;}</style></defs><title>logo-nora2-w</title><path class="e4f07a69-bedd-4e11-a7c0-0f0c65aeee3e" d="M401.37,109.6c5.53.24,10.72,1.59,15.26,5a19.7,19.7,0,0,1,6.85,9,20.77,20.77,0,0,1,1.09,10.67,25.17,25.17,0,0,1-6.19,12.63,55.5,55.5,0,0,1-8,7.47c-6,4.75-12.09,9.48-18.09,14.28-4.67,3.73-9.39,7.4-13.72,11.55-.82.79-1.55,1.67-2.32,2.51a4.55,4.55,0,0,0-.32.4c-.41.56-.86,1.17-.46,1.88s1.17.55,1.83.39a52.05,52.05,0,0,1,10.78-1.28,50.11,50.11,0,0,1,11.31,1.06c3.72.76,7.45,1.45,11.18,2.14a11.68,11.68,0,0,0,2.36.19,2.12,2.12,0,0,0,1.86-1.12,4.74,4.74,0,0,0,.31-1.18s.09-.39.26-.94c.25-.84.65-1.42.71-1.72a24.21,24.21,0,0,1,4.73-10c.88-1.13,1.81-2.21,2.75-3.28a16.71,16.71,0,0,0,2.77-4.52c.3-.68.64-1.35,1-2a7.74,7.74,0,0,1,2.36-2.9,4.13,4.13,0,0,0,1.56-2.19,8.31,8.31,0,0,1,.58-1.44,1.11,1.11,0,0,1,1.95-.18c.31.41.53.88.82,1.31a1.46,1.46,0,0,0,1.87.75,1.85,1.85,0,0,1,1.93.2,1.1,1.1,0,0,0,1.14,0c.37-.14.72-.33,1.09-.47a3,3,0,0,1,1.83-.16,1,1,0,0,1,.85.95,11.23,11.23,0,0,1-.17,2.57,10,10,0,0,0-.07,4.1,23.85,23.85,0,0,1,.2,2.92,5.37,5.37,0,0,1-.05,1,2.93,2.93,0,0,1-2.5,2.67,16.52,16.52,0,0,1-1.86.14c-1.86.14-2.84,1.28-2.46,3.12.35,1.68.88,3.32,1.36,5,.59,2,1.38,4,1.31,6.2a6.18,6.18,0,0,1-4.64,6,22.52,22.52,0,0,1-4.71.55c-1,0-1.92.12-2.88.12-2,0-3.5,0-5.09-.08-1.22,0-1.84-.08-2.58-.15-1.3-.14-1.89-.29-3.09-.47s-2-.23-3.67-.37a87.93,87.93,0,0,1-12.77-1.74l-.17,0c-5.14-.91-10.28-1.72-15.52-1.28a24.21,24.21,0,0,0-9.59,2.66,16.93,16.93,0,0,1-2.48,1.11c-2,.67-3.42-.62-3.07-2.7a8.23,8.23,0,0,1,1.12-3.05,37.79,37.79,0,0,1,4.45-5.64,142.27,142.27,0,0,1,11.37-10.62q7.13-6.12,14.31-12.19a52.52,52.52,0,0,0,8.45-9.17q1.88-2.56,3.66-5.18a20.94,20.94,0,0,0,2.45-5.1,11,11,0,0,0,.46-2,21.8,21.8,0,0,0-.11-7.39c-1.18-5.68-4.25-10-9.48-12.49a18.65,18.65,0,0,0-9.47-1.48,17.16,17.16,0,0,0-7.75,2.31,12.63,12.63,0,0,0-5.91,7.68,15.48,15.48,0,0,0-.37,3.25,19.26,19.26,0,0,0,1.79,8.69c.33.79.67,1.59.94,2.4a.94.94,0,0,1-.16.78.65.65,0,0,1-.93,0,7.69,7.69,0,0,1-1.36-1.52,35.36,35.36,0,0,1-2-3.78,20.48,20.48,0,0,1-1.52-4.92,14.88,14.88,0,0,1,1.9-10.28,19.52,19.52,0,0,1,6.44-6.5,22.69,22.69,0,0,1,6.64-3A25.24,25.24,0,0,1,401.37,109.6Zm15.11,80.7a3.18,3.18,0,0,0,1.23,1,3.23,3.23,0,0,0,1.46.29,3.91,3.91,0,0,0,1.21-.23c1.94-.62,2.93-.94,3.42-1.18a6.41,6.41,0,0,0,1.8-1.13,4.83,4.83,0,0,0,.86-1.17,2.21,2.21,0,0,0,.28-1.21,2.39,2.39,0,0,0-.47-1.23,1.84,1.84,0,0,0-.58-.61,3.4,3.4,0,0,0-.81-.32h-.23a1.68,1.68,0,0,0-.48.08l-1.71.4c-2.65.62-3.08.77-3.31.85a11.47,11.47,0,0,0-2.78,1.47,2.66,2.66,0,0,0-.39,1.72A2.6,2.6,0,0,0,416.48,190.29Z" transform="translate(0.05 -0.56)"/><path class="e4f07a69-bedd-4e11-a7c0-0f0c65aeee3e" d="M134.37,74.33A3.8,3.8,0,0,0,135.7,76c2.28,1.7,4.51,3.47,6.83,5.1a73.22,73.22,0,0,0,8.31,5c2,1,3.93,2,6,2.91a80.24,80.24,0,0,0,7.6,2.94,6.14,6.14,0,0,1,1,.57,2,2,0,0,1-1.22,1.61c-1.85,1-3.69,2-5.53,3a2.71,2.71,0,0,1-3-.09c-3.54-2.38-7.06-4.78-10.44-7.38s-6.78-5.36-10-8.29a113.68,113.68,0,0,1-16.54-18.22c-.76-1.07-1.47-2.18-2.17-3.3a2.75,2.75,0,0,0-2.55-1.4c-2.77,0-5.55,0-8.32,0a3.66,3.66,0,0,0-1,.13,1.26,1.26,0,0,0-1,1.23c0,.34,0,.69,0,1q0,11.31,0,22.61a10.4,10.4,0,0,0,0,1.21,1,1,0,0,0,1,.91,3.13,3.13,0,0,0,.82-.19c2-.68,4-1.32,5.94-2.07,2.37-.91,4.8-1.68,7.13-2.72a38.25,38.25,0,0,0,4.88-2.38,1.49,1.49,0,0,1,.47-.18,1,1,0,0,1,1.07.34c.26.33.07.64-.09,1a4.68,4.68,0,0,1-2,1.8,86.9,86.9,0,0,1-8.87,4.7c-1.9.87-3.77,1.84-5.68,2.7-2.69,1.21-5.4,2.36-8.11,3.52q-3.51,1.51-7,3-2.66,1.12-5.33,2.21a4.41,4.41,0,0,1-.65.19A1.87,1.87,0,0,1,85,96.63c-.88-1.33-1.82-2.63-2.73-4-.58-.85-1.17-1.7-1.71-2.57a1.17,1.17,0,0,1,.82-1.81.89.89,0,0,1,.63.15,5.12,5.12,0,0,1,.71.74c.3.34.59.7.89,1a2.83,2.83,0,0,0,3.48.94c1.58-.59,3.27-.88,4.88-1.42,1.23-.42,2.45-.86,3.72-1.16a4.86,4.86,0,0,0,1.06-.54,1.7,1.7,0,0,0,1-1.67c0-.52,0-1,0-1.55q0-28.57,0-57.13c0-.4,0-.81,0-1.21a4,4,0,0,0-1.54-3.3c-.44-.37-.91-.68-1.35-1A1.08,1.08,0,0,1,96,20.3a5.76,5.76,0,0,1,.74.42l5.65,3.49c.29.18.61.31.9.49a2.29,2.29,0,0,0,2.11.17c1.61-.55,3.21-1.13,4.85-1.56A40,40,0,0,1,117.9,22a9.9,9.9,0,0,0,1.18-.1,1.42,1.42,0,0,0,1.27-1.39,12.68,12.68,0,0,0,0-1.38c0-1.73,0-3.45,0-5.18,0-1.14.91-1.66,1.86-1.07,1.15.72,2.25,1.54,3.34,2.36a2.15,2.15,0,0,1,.86,1.8c0,.52,0,1,0,1.55s0,1,0,1.55c.07,1.35.39,1.75,1.66,2s2.57.42,3.85.66a27.15,27.15,0,0,1,5.23,1.46c.47.19,1,.3,1.44.5a2.27,2.27,0,0,0,2.65-.54c1-.89,1.91-1.8,2.87-2.69a11.85,11.85,0,0,1,1-.92,1.23,1.23,0,0,1,1.84.08c1.43,1.3,2.83,2.65,4.22,4a1.12,1.12,0,0,1,0,1.68c-.5.54-1,1-1.6,1.55a2.93,2.93,0,0,0-1,2.44c0,.57,0,1.15,0,1.73q0,11.65,0,23.3c0,.46,0,.92,0,1.38A1.68,1.68,0,0,1,147,58.45a13.18,13.18,0,0,1-1.7,0H122.58a11,11,0,0,0-1.69.09.75.75,0,0,0-.5,1.19c.68,1,1.39,2,2.13,2.9a84.72,84.72,0,0,0,7.26,8l.5.47a1.87,1.87,0,0,0,1.9.39,70.17,70.17,0,0,0,9.35-3.08c3.95-1.77,7.74-3.78,10.85-6.93,1.23-1.24,1.82-1.16,2.86.23.55.73,1.1,1.46,1.63,2.21a1.32,1.32,0,0,1-.54,2.23c-.6.32-1.2.64-1.82.92-2.54,1.13-5.07,2.29-7.63,3.35-1.35.56-2.82.86-4.16,1.45-1.62.72-3.4.84-5,1.52a6.41,6.41,0,0,1-1.66.29A2.48,2.48,0,0,0,134.37,74.33ZM122.95,54.53v0h16.81c.57,0,1.13,0,1.69-.06a1.06,1.06,0,0,0,1-1,12.91,12.91,0,0,0,.11-1.72q0-9.15,0-18.29c0-.29,0-.58,0-.86a2.2,2.2,0,0,0-1-1.73,24.25,24.25,0,0,0-6.53-3.23,19.11,19.11,0,0,0-5.76-1.32,3.9,3.9,0,0,1-1-.22,13.78,13.78,0,0,0-4-.51q-2,0-3.9,0a17.07,17.07,0,0,0-3.7.41c-1,.22-2.12.33-3.18.53-.77.15-1.53.36-2.3.56a7.83,7.83,0,0,1-1,.32A19.6,19.6,0,0,0,106,28.95a3.21,3.21,0,0,0-2.38,3.67,2.83,2.83,0,0,1,0,.34q0,9.23,0,18.46c0,.46,0,.92,0,1.38.12,1.3.56,1.69,1.85,1.72h17.49Z" transform="translate(0.05 -0.56)"/><path class="e4f07a69-bedd-4e11-a7c0-0f0c65aeee3e" d="M0,89.38a3,3,0,0,1,2-1.2,1.31,1.31,0,0,1,.92.28,9.53,9.53,0,0,1,1,1.14A3.7,3.7,0,0,0,7.64,91c.88-.19,1.76-.42,2.63-.64.55-.14,1.09-.3,1.63-.45l2.28-.61A4,4,0,0,1,15,89c1.55-.08,2.93-.84,4.42-1.16,1-.21,1.21-.48,1.31-1.51,0-.46.05-.92.05-1.38q0-5.18,0-10.35a9.38,9.38,0,0,0-.07-1.38,1.32,1.32,0,0,0-1.32-1.32,9.54,9.54,0,0,0-1.19,0H10.9c-.45,0-.91,0-1.36,0a2.34,2.34,0,0,1-1.66-.75c-.85-.92-1.71-1.83-2.57-2.75a1.43,1.43,0,0,1-.38-1.27.65.65,0,0,1,.77-.5c.36.15.71.36,1.06.54a8.76,8.76,0,0,0,4.23,1c2.49-.05,5,0,7.47,0,.23,0,.45,0,.68,0,1.06-.1,1.56-.52,1.59-1.63.06-2.24,0-4.49,0-6.73a1.36,1.36,0,0,0-1.22-1.44,6.36,6.36,0,0,0-1.35-.1l-9.51,0a8,8,0,0,1-.85,0A1.72,1.72,0,0,1,6,56.44c0-.46,0-.92,0-1.38q0-13.8,0-27.61c0-.17,0-.35,0-.52a4.68,4.68,0,0,0-2.31-4.65,1.81,1.81,0,0,1-.88-1,.86.86,0,0,1,.67-1.17,2.23,2.23,0,0,1,1.62.33L9,22.87c.29.18.57.38.86.54,1.78,1,1.78,1.16,3.73.13a17.13,17.13,0,0,1,5.31-1.73,24.55,24.55,0,0,1,5.55-.58c.79,0,1.58.15,2.36.27a17.52,17.52,0,0,1,2.49.49,25.42,25.42,0,0,1,4.14,1.5,2.51,2.51,0,0,0,3.34-.56,23.66,23.66,0,0,1,1.88-1.74,1.43,1.43,0,0,1,2.26,0q1.91,1.71,3.75,3.51a1.35,1.35,0,0,1,0,2.23c-.35.38-.73.72-1.1,1.07a3.36,3.36,0,0,0-1.17,2.58c0,.63,0,1.27,0,1.9q0,11.39,0,22.78c0,.4,0,.81,0,1.21-.09,1.24-.56,1.71-1.82,1.79-.45,0-.9,0-1.36,0H29.74c-.45,0-.91,0-1.36,0a1.57,1.57,0,0,0-1.63,1.62c0,.4,0,.8,0,1.21q0,2.24,0,4.49a8.09,8.09,0,0,0,0,1,1.52,1.52,0,0,0,1.56,1.5c.51,0,1,0,1.53,0,1.3,0,2.6,0,3.9,0a3.81,3.81,0,0,0,3-1,2.45,2.45,0,0,1,.54-.42,1.14,1.14,0,0,1,1.42.11c1.37,1.29,2.74,2.58,4.08,3.89a.6.6,0,0,1-.4,1,11.17,11.17,0,0,1-1.69.11H29.8c-.51,0-1,0-1.53,0a1.41,1.41,0,0,0-1.47,1.37,6.17,6.17,0,0,0-.07,1c0,3.16,0,6.33,0,9.49,0,1.83.41,2.09,2.18,1.61,2.79-.75,5.62-1.35,8.37-2.2,1.89-.58,3.86-.83,5.72-1.57a10.9,10.9,0,0,1,2.49-.48.68.68,0,0,1,.78.52,1,1,0,0,1-.12.79,3,3,0,0,1-1.07.78c-2.44.92-4.9,1.78-7.34,2.68-1.27.47-2.52,1-3.78,1.51-1.1.44-2.21.87-3.32,1.28-1.38.51-2.77,1-4.15,1.5-2.92,1.09-5.84,2.17-8.75,3.29-2.22.85-4.42,1.74-6.62,2.61L8.45,97.19a2,2,0,0,1-2.78-.85Q3.81,93.76,2,91.13A3.18,3.18,0,0,0,.45,89.66,3.06,3.06,0,0,1,0,89.38ZM34,43.27a2.09,2.09,0,0,1-.52.26,9,9,0,0,1-1.18.09c-1.3,0-2.6,0-3.9,0s-1.64.4-1.66,1.65c0,2.3,0,4.6,0,6.89,0,1.56.54,2.07,2.05,2.1,1.92,0,3.84,0,5.76,0a4,4,0,0,0,.68,0,1.4,1.4,0,0,0,1.31-1.35,5.82,5.82,0,0,0,0-.86c0-6.61,0-13.21,0-19.82a3.36,3.36,0,0,0-1.08-2.59,18.46,18.46,0,0,0-6.89-3.9,1.79,1.79,0,0,0-.5-.07,1.13,1.13,0,0,0-1.32,1A8.6,8.6,0,0,0,26.73,28q0,4.22,0,8.44c0,.4,0,.81,0,1.21.09.91.54,1.23,1.36.84a1.74,1.74,0,0,1,2.16.36c1,1,2.09,1.92,3.13,2.89A1.64,1.64,0,0,1,34,43.27Zm-21.79-2q0,4.92,0,9.83c0,.46,0,.92,0,1.38.11,1.29.55,1.75,1.82,1.79,1.58,0,3.17,0,4.75,0,1.41,0,1.88-.56,2-2,0-.29,0-.57,0-.86,0-1.78,0-3.56,0-5.35,0-2.2,0-2.21-2.1-2.43a2.56,2.56,0,0,1-1.69-.7c-1.09-1.17-2.14-2.37-3.18-3.58a.68.68,0,0,1-.11-.62,1.14,1.14,0,0,1,.67-.42,2.4,2.4,0,0,1,1.6.46,6.92,6.92,0,0,0,2.91.86c1.41.09,1.85-.32,1.91-1.72,0-.17,0-.34,0-.52q0-4.57,0-9.14a11.48,11.48,0,0,0-.06-1.38,1.22,1.22,0,0,0-1.49-1.25,2.18,2.18,0,0,0-.82.18c-1.26.64-2.62,1-3.88,1.69a3.89,3.89,0,0,0-2.34,4C12.29,34.71,12.21,38,12.21,41.26Z" transform="translate(0.05 -0.56)"/><path class="e4f07a69-bedd-4e11-a7c0-0f0c65aeee3e" d="M288.73,95.86a9.37,9.37,0,0,1,2.72-1.46,73,73,0,0,0,8.47-3.94c2.17-1.23,4.36-2.44,6.44-3.8a51.47,51.47,0,0,0,6.71-5q3-2.77,6-5.58a5.83,5.83,0,0,0,.87-1.05.75.75,0,0,0-.28-1.17,12.82,12.82,0,0,0-1.68-.82c-1.32-.49-2.67-.92-4-1.38-.48-.16-1-.36-1.44-.5a13.41,13.41,0,0,0-1.8-.46c-1-.16-1.46.12-1.81,1.1-.17.49-.29,1-.47,1.48a3.42,3.42,0,0,1-.53,1.07c-.25.28-.67.64-1,.6A9.54,9.54,0,0,1,303,74l-.14-.09a1.05,1.05,0,0,1-.47-1.34c.45-1.54.94-3.06,1.37-4.61.48-1.71.9-3.44,1.36-5.15.37-1.39.74-2.77,1.14-4.15.47-1.65,1-3.3,1.44-5s.88-3.33,1.33-5c.13-.5.31-1,.46-1.48a8.22,8.22,0,0,0,.28-1c.16-.94-.22-1.44-1.13-1.53-.34,0-.68,0-1,0H288.31a2.55,2.55,0,0,1-1.85-.74c-1-1-2-2.08-2.91-3.14a1.91,1.91,0,0,1-.32-.6c-.14-.38.2-.91.59-.84a3.74,3.74,0,0,1,1.43.46,5.27,5.27,0,0,0,3.06.84c3.23,0,6.45.06,9.68.07,3.45,0,6.9,0,10.36,0,.51,0,1,0,1.53,0,1.26-.12,1.66-.51,2-1.74.23-.89.5-1.76.74-2.65.48-1.77.94-3.54,1.41-5.31.12-.44.24-.88.36-1.32.21-.77.43-1.54.64-2.31a3.84,3.84,0,0,1,.2-.83,13.81,13.81,0,0,0,1.06-4.33,4.62,4.62,0,0,0-1.92-5c-.23-.16-.49-.29-.71-.47a1,1,0,0,1-.39-1.2,1.15,1.15,0,0,1,1.22-.73,3,3,0,0,1,.93.39c2,1.22,3.95,2.47,5.92,3.7.19.12.41.21.59.34a2.16,2.16,0,0,1,1,2.83c-.5,1.64-1,3.27-1.54,4.92-.13.44-.21.9-.32,1.34-.16.61-.34,1.21-.5,1.82L320,32q-.23.83-.46,1.65T319,35.49c-.21.71-.44,1.42-.63,2.14a13.28,13.28,0,0,0-.42,1.84,1,1,0,0,0,.91,1.21,9,9,0,0,0,1.35.09h34.63a4,4,0,0,0,3-1c.73-.68,1.33-.6,2.12.09,1.15,1,2.28,2.07,3.38,3.14a2.27,2.27,0,0,1,.47.89.51.51,0,0,1-.36.67,7.2,7.2,0,0,1-1.51.15H346.47c-.4,0-.79,0-1.19,0-1.3.09-1.77.51-2.11,1.83-.29,1.11-.61,2.21-.88,3.32a41.2,41.2,0,0,1-2.41,6.8,59.4,59.4,0,0,1-4.51,8.67A58.51,58.51,0,0,1,331,71.52a2.34,2.34,0,0,0-.2.28,1.26,1.26,0,0,0,.54,2l3.56,2a57.18,57.18,0,0,1,12.45,9.77,51.09,51.09,0,0,1,7.06,9,3.1,3.1,0,0,1,.55,1.95,1.06,1.06,0,0,1-.89,1.1,11.15,11.15,0,0,1-2,.19c-1,0-1.92-.11-2.88-.07a3.21,3.21,0,0,1-3-1.51c-1.51-2.15-3.06-4.29-4.75-6.29a57.44,57.44,0,0,0-11.92-10.68c-.71-.47-1.43-.93-2.14-1.39a1.72,1.72,0,0,0-2.32.25l-.75.7A76.23,76.23,0,0,1,312.47,88a82.3,82.3,0,0,1-8.78,4.86c-2,1-4.16,1.78-6.25,2.64-1.31.54-2.62,1.06-4,1.53a12.55,12.55,0,0,1-2,.49A2.24,2.24,0,0,1,288.73,95.86Zm37.48-51.16h-7.29a11.24,11.24,0,0,0-1.52.08,1.47,1.47,0,0,0-1.38,1.3,10.47,10.47,0,0,1-.83,2.79,7.2,7.2,0,0,0-.28,1.17c-.17.66-.36,1.32-.54,2l-.47,1.65-.61,2.14-.37,1.32c-.22.77-.44,1.54-.65,2.31-.14.5-.26,1-.4,1.49-.2.72-.41,1.43-.6,2.15a21,21,0,0,0-.52,2.34,1.38,1.38,0,0,0,1,1.59,2.71,2.71,0,0,0,.66.15,43.06,43.06,0,0,1,6.41,1.57c1.2.31,2.37.75,3.56,1.13a2.29,2.29,0,0,0,2.81-1c.23-.33.43-.67.66-1a62,62,0,0,0,9.35-19.71c.08-.33.24-.64.36-1a6,6,0,0,0,.27-.81c.21-1-.14-1.54-1.15-1.64-.39,0-.79,0-1.19,0Z" transform="translate(0.05 -0.56)"/><path class="e4f07a69-bedd-4e11-a7c0-0f0c65aeee3e" d="M548,77.57a1.8,1.8,0,0,0,.76,1.69,63.27,63.27,0,0,0,6.11,5.21,80.37,80.37,0,0,0,7.78,5.22,56.83,56.83,0,0,0,7.62,3.77,4.18,4.18,0,0,1,2.15,1.34,2.74,2.74,0,0,1-1.34,1.5c-1.49.93-3,1.89-4.44,2.85a1.29,1.29,0,0,1-1.84-.07c-.67-.53-1.28-1.14-2-1.64a114.79,114.79,0,0,1-11.47-10A108.59,108.59,0,0,1,538.2,72.14a60,60,0,0,1-4.78-7.73,2.81,2.81,0,0,0-2.87-1.68c-1.75,0-3.51,0-5.26,0a6.93,6.93,0,0,0-.85,0,1.31,1.31,0,0,0-1.33,1.3,11.92,11.92,0,0,0-.05,1.38q-.06,10-.12,20A10.6,10.6,0,0,0,523,87a.91.91,0,0,0,1.12.78,4.86,4.86,0,0,0,1-.28c1.63-.65,3.27-1.27,4.88-2,2.29-1,4.55-2,6.82-3.08.46-.21.85-.56,1.3-.8a5,5,0,0,1,1.25-.49.71.71,0,0,1,.7,1,4.67,4.67,0,0,1-1.14,1.24c-1.58,1.11-3.17,2.21-4.82,3.2A167.36,167.36,0,0,1,517,95.52c-2.58,1.17-5.08,2.52-7.61,3.79a2.22,2.22,0,0,1-.48.12,2.85,2.85,0,0,1-1.37-1.26c-1-1.65-2.05-3.31-3-5a3.92,3.92,0,0,1-.46-1.46.81.81,0,0,1,1.26-.8,3.3,3.3,0,0,1,.76.66c.22.25.38.57.58.85a2.18,2.18,0,0,0,2.71.81l4.81-1.71c.64-.23,1.29-.43,1.93-.67a2.36,2.36,0,0,0,1.74-2.46c0-.34,0-.69,0-1q.08-18.12.17-36.24c0-5.75.08-11.5.12-17.26,0-.35,0-.69,0-1a4.5,4.5,0,0,0-1.85-4,4.46,4.46,0,0,1-.81-.86.85.85,0,0,1-.06-1,.9.9,0,0,1,1-.45,5,5,0,0,1,1.34.69c1.48,1.05,3,2.11,4.41,3.22a2.31,2.31,0,0,0,2.69.3,29.81,29.81,0,0,1,9.28-2.61l.34,0c1.93-.19,2.42-1,2-2.73a6.9,6.9,0,0,1-.13-1.71,3.21,3.21,0,0,0-1.08-2.6,7.25,7.25,0,0,1-.93-1,2,2,0,0,1-.36-.75.65.65,0,0,1,.8-.8,2.48,2.48,0,0,1,.64.22A32.34,32.34,0,0,1,541,22.63a2.65,2.65,0,0,1,.94,2.93c-.53,1.64.18,2.49,1.79,2.81.28.06.55.12.83.16a20.33,20.33,0,0,1,6.63,2,5.82,5.82,0,0,0,.62.27,1.72,1.72,0,0,0,2-.49c.88-1,1.74-2,2.64-2.92,1.15-1.23,1.61-1.21,2.75,0l2.08,2.27a8.34,8.34,0,0,1,.66.78,1.57,1.57,0,0,1,0,1.93,5.52,5.52,0,0,1-.78.91,4.81,4.81,0,0,0-1.44,3.73c0,2.47-.08,4.95-.13,7.42q-.14,7.85-.29,15.7a7.37,7.37,0,0,1-.1,1.37,1.33,1.33,0,0,1-1.15,1.12,9.21,9.21,0,0,1-1.35.09H538.56a6.13,6.13,0,0,0-1.5.15.75.75,0,0,0-.47,1.21c.9,1.46,1.79,2.94,2.8,4.31,1.29,1.75,2.72,3.38,4,5.1a3,3,0,0,0,3.75,1,48.33,48.33,0,0,0,7.39-3,24,24,0,0,0,7.8-6,2.72,2.72,0,0,1,.48-.49,1,1,0,0,1,1.49.22c.6.84,1.19,1.68,1.73,2.55s.46,1.35-.34,1.91a29.65,29.65,0,0,1-3.05,1.84c-1.71.89-3.45,1.71-5.18,2.56a43.51,43.51,0,0,1-8.48,3c-.22.05-.44.1-.66.17A2.3,2.3,0,0,0,548,77.57Zm-9.24-18.63h13.4c.28,0,.57,0,.85,0,.83-.07,1.19-.43,1.3-1.3a10.7,10.7,0,0,0,.06-1.2q.13-8.36.26-16.73c0-.4,0-.8,0-1.21a2.75,2.75,0,0,0-1-2.1,9.81,9.81,0,0,0-1.37-1A23.8,23.8,0,0,0,541.83,32a45.93,45.93,0,0,0-7.12,0,24.71,24.71,0,0,0-10.16,3.11,2.38,2.38,0,0,0-1.35,2.2c0,.46,0,.92,0,1.38,0,2,.07,3.91.05,5.86,0,4-.12,7.93-.14,11.9,0,2.32.21,2.5,2.56,2.5Z" transform="translate(0.05 -0.56)"/><path class="e4f07a69-bedd-4e11-a7c0-0f0c65aeee3e" d="M204.32,65.91c.49-.68,1-.82,1.47-.5,1.63,1.14,3.53,1.14,5.37,1.36a26.57,26.57,0,0,0,3.22.13q24.71,0,49.41,0a4.84,4.84,0,0,0,3.31-1.06,1.46,1.46,0,0,1,2.26,0c1.26,1.15,2.48,2.35,3.7,3.55a4.21,4.21,0,0,1,.48.78c-.28.19-.49.43-.73.48a8.48,8.48,0,0,1-1.52.1l-26.66,0c-2.37,0-2.62.27-2.62,2.67,0,1.27,0,2.53,0,3.8s.46,1.75,1.73,1.87c.39,0,.79,0,1.19,0,4.19,0,8.38,0,12.57,0A5,5,0,0,0,261,78c1-.82,1.39-.77,2.38.1,1.19,1.06,2.33,2.18,3.49,3.27a.84.84,0,0,1,.29.92.91.91,0,0,1-.91.64c-.45,0-.9,0-1.36,0H245a10.86,10.86,0,0,0-1.52.05,1.44,1.44,0,0,0-1.43,1.6q0,3.71,0,7.42c0,1.17.51,1.64,1.66,1.76a11.16,11.16,0,0,0,1.19,0c8.49,0,17,0,25.47,0a4.92,4.92,0,0,0,3.48-1.06,1.21,1.21,0,0,1,1.84-.07c1.31,1.18,2.58,2.41,3.86,3.62a1.34,1.34,0,0,1,.29.42.56.56,0,0,1-.21.75,2.21,2.21,0,0,1-1,.29c-.9,0-1.81,0-2.72,0H206.49c-3.38,0-3.2-.16-5.15-2.24-.39-.42-.8-.82-1.18-1.24a3.44,3.44,0,0,1-.51-.68,1,1,0,0,1,.15-1.12.74.74,0,0,1,.95-.06c1.74,1.22,3.75,1.16,5.71,1.3.9.07,1.81,0,2.72,0h24.11c.34,0,.68,0,1,0a1.38,1.38,0,0,0,1.46-1.37,5.49,5.49,0,0,0,.05-.86q0-3.19,0-6.39a5.88,5.88,0,0,0,0-.86A1.37,1.37,0,0,0,234.31,83c-.39,0-.79,0-1.19,0H217.33c-.4,0-.79,0-1.19,0A3.18,3.18,0,0,1,214,82c-.87-.91-1.75-1.8-2.6-2.73a1.73,1.73,0,0,1-.41-.9,1,1,0,0,1,.29-.75.85.85,0,0,1,.77,0,14.4,14.4,0,0,0,7.23,1.52c4.75.05,9.51,0,14.26,0,.28,0,.57,0,.85,0A1.2,1.2,0,0,0,235.7,78a5,5,0,0,0,.11-1c0-1.38,0-2.76,0-4.14a4.39,4.39,0,0,0,0-.52c-.15-1.2-.44-1.49-1.61-1.54-.34,0-.68,0-1,0H210.74a5.09,5.09,0,0,0-.51,0,3.38,3.38,0,0,1-3.13-1.34c-.61-.75-1.3-1.44-1.92-2.19A14.05,14.05,0,0,1,204.32,65.91Z" transform="translate(0.05 -0.56)"/><path class="e4f07a69-bedd-4e11-a7c0-0f0c65aeee3e" d="M606.92,71.22q0-8.89,0-17.77c0-.57,0-1.15,0-1.72a4.23,4.23,0,0,0-1.9-3.48,3.12,3.12,0,0,1-1.22-1.16.85.85,0,0,1,.64-1.29,1.88,1.88,0,0,1,1.43.39c1,.73,2.09,1.38,3.06,2.17a4,4,0,0,0,2.68.84c4,0,7.92,0,11.88,0l20.54,0h1.19a2.83,2.83,0,0,0,2.15-.85c.6-.61,1.24-1.18,1.89-1.74.93-.79,1.46-.8,2.37,0q2,1.78,3.86,3.63a1.26,1.26,0,0,1,0,2.08c-.44.45-.9.87-1.36,1.29a3.08,3.08,0,0,0-1,2.29c0,.57,0,1.15,0,1.73q0,16,0,31.92c0,.35,0,.69,0,1a2.92,2.92,0,0,1-1.14,2.4,26.61,26.61,0,0,1-3.22,2.22A31.28,31.28,0,0,1,642.14,98a25.37,25.37,0,0,1-5.64,1.19c-.85,0-1.69.2-2.53.28a33.56,33.56,0,0,1-7.62,0c-.51-.06-1-.15-1.52-.19a31.93,31.93,0,0,1-10.15-2.57A41.43,41.43,0,0,1,610,94.33l-.3-.16c-2.43-1.5-2.76-2.11-2.76-5q0-9,0-17.95Zm6.12,1.1q0,8.28,0,16.57c0,.46,0,.92,0,1.38a2.2,2.2,0,0,0,1.24,1.92,30.72,30.72,0,0,0,5.86,2.23c.65.19,1.31.36,2,.5a19.39,19.39,0,0,0,2.66.48,80.7,80.7,0,0,0,10.18.06,10.71,10.71,0,0,0,4-.73,5,5,0,0,1,1.15-.28,20.79,20.79,0,0,0,5.38-2,2.49,2.49,0,0,0,1.46-2.5c0-.23,0-.46,0-.69q0-16.82,0-33.65c0-.4,0-.81,0-1.21a1.32,1.32,0,0,0-1.15-1.3,9.34,9.34,0,0,0-1.69-.12H615.89a10.74,10.74,0,0,0-1.36,0,1.43,1.43,0,0,0-1.47,1.55c0,.46,0,.92,0,1.38Q613,64.12,613,72.32Z" transform="translate(0.05 -0.56)"/><path class="e4f07a69-bedd-4e11-a7c0-0f0c65aeee3e" d="M671,77.65a1.23,1.23,0,0,1,1.16-.73,2.41,2.41,0,0,1,1.64.29,1,1,0,0,1,.36.54,1.46,1.46,0,0,1,0,.68,3.86,3.86,0,0,0,.62,3c.31.55.66,1.07,1,1.59a1.43,1.43,0,0,0,1.94.5,18.84,18.84,0,0,0,1.87-1.17,132.78,132.78,0,0,0,12.64-9.59A98.68,98.68,0,0,0,705.23,59.2c.71-.9,1.46-1.76,2.15-2.67.34-.44.84-.92.6-1.53s-1.05-.55-1.65-.55c-4.42,0-8.83,0-13.25,0-3.34,0-6.68,0-10,0H668c-.34,0-.68,0-1,0a3,3,0,0,1-2.43-1c-.74-.79-1.49-1.57-2.24-2.36l-.11-.13a1.29,1.29,0,0,1-.29-1.42c.19-.37.75-.43,1.37,0a7.38,7.38,0,0,0,4.37,1.11q9.77,0,19.53,0c2.07,0,2.47-.58,2.47-2.38,0-2.13,0-4.26.06-6.39a3.27,3.27,0,0,0-1.49-3.08,4.1,4.1,0,0,1-.81-.62,4.31,4.31,0,0,1-.65-1,.59.59,0,0,1,.43-.8,2.24,2.24,0,0,1,1,0A4.6,4.6,0,0,1,689,37l2.94,1.71c.29.17.59.35.87.54a1.59,1.59,0,0,1,.74,1.29c0,.4,0,.8,0,1.21q0,3.28,0,6.56c0,.23,0,.46,0,.69.07,1,.43,1.46,1.41,1.63a7,7,0,0,0,1.18.06l11.38,0h1a3.49,3.49,0,0,0,2.64-1,2.31,2.31,0,0,1,3.48,0c.82.71,1.65,1.39,2.46,2.12a3.57,3.57,0,0,1,.74.93,1.32,1.32,0,0,1-.52,1.78,2.14,2.14,0,0,1-.46.23,7.22,7.22,0,0,0-3.31,2.57q-2.11,2.59-4.35,5.06a92.42,92.42,0,0,1-9.84,9.25,112.5,112.5,0,0,1-12.75,9.13c-2.18,1.33-4.44,2.52-6.67,3.77-.25.14-.52.23-.75.4a1.11,1.11,0,0,0-.11,1.87,18,18,0,0,0,2.11,1.44,26.88,26.88,0,0,0,4.33,1.95,43.54,43.54,0,0,0,5.6,1.38c1.59.35,3.26.31,4.89.53,4.62.62,9.27.36,13.91.35,2.14,0,4.28-.39,6.42-.56a36.17,36.17,0,0,0,5-.66,29.37,29.37,0,0,1,4-.43.69.69,0,0,1,.52.34.83.83,0,0,1,0,.63,1.86,1.86,0,0,1-.46.5,4.85,4.85,0,0,0-1.44,2.3,2.7,2.7,0,0,1-2.41,2.09,36.31,36.31,0,0,1-5.91.56q-7.73,0-15.46,0a21.31,21.31,0,0,1-5.06-.54c-.55-.13-1.12-.15-1.68-.25-.83-.14-1.68-.26-2.49-.48-1.53-.41-3.07-.77-4.58-1.25a20.87,20.87,0,0,1-11-8.22,38.42,38.42,0,0,1-2-3.57c-.2-.37-.4-.72-.86-.72a1.08,1.08,0,0,0-1,.74A44.73,44.73,0,0,1,666.08,92a4.3,4.3,0,0,0-.9,2.2,2.49,2.49,0,0,1-.15.67.86.86,0,0,1-1.11.54,1.92,1.92,0,0,1-.86-.5c-1-1.21-1.87-2.45-2.8-3.69-.45-.6-.48-1.17.3-1.79a16,16,0,0,1,1.86-1.2,26.24,26.24,0,0,0,6.83-6.14c.4-.48.76-1,1.18-1.47a2.45,2.45,0,0,0,.59-2.39A4,4,0,0,1,671,77.65Z" transform="translate(0.05 -0.56)"/><path class="e4f07a69-bedd-4e11-a7c0-0f0c65aeee3e" d="M203.08,31.48c.52-1.33.86-1.56,2-1.38.28,0,.55.12.83.19,1.64.42,3.29.83,4.93,1.28a16.58,16.58,0,0,0,4.53.61c1,0,2,0,3.06,0a21.22,21.22,0,0,0,8-1.27,16.9,16.9,0,0,0,5.05-2.78,22.68,22.68,0,0,0,5.77-6.94,1.9,1.9,0,0,0-.26-2.66,19.45,19.45,0,0,0-1.6-1.53c-.21-.19-.47-.33-.65-.54a1.07,1.07,0,0,1,0-1.28,1.33,1.33,0,0,1,.87-.38,2.4,2.4,0,0,1,1.1.36q3.28,2,6.53,4a4.15,4.15,0,0,1,.86.81,1.09,1.09,0,0,1,.23,1.12,9.78,9.78,0,0,0-.28,1,3.23,3.23,0,0,0,.52,2.6,15.9,15.9,0,0,0,8.35,6.45,28,28,0,0,0,11.39,1.23c.85-.06,1.69-.17,2.54-.22a17.65,17.65,0,0,0,4-.66c1.47-.42,3-.77,4.44-1.14a2.3,2.3,0,0,1,2.1.36.8.8,0,0,1,.21,1.07,8.59,8.59,0,0,1-1.15,1.26,27,27,0,0,0-4.28,4.41,39.38,39.38,0,0,0-5.31,10.55c-.64,1.91-1,3.9-1.59,5.81a12.74,12.74,0,0,0-.35,2.21c-.18,1.25-.32,2.51-.56,3.75s-.63,1.43-1.74,1.54c-.39,0-.79,0-1.19,0H218.28a9.64,9.64,0,0,1-1.36-.05,1.43,1.43,0,0,1-1.43-1.43c-.23-1.77-.43-3.54-.64-5.31a11.75,11.75,0,0,0-.2-1.54A59.53,59.53,0,0,0,212.2,45a35.27,35.27,0,0,0-7.75-11.84,10.87,10.87,0,0,1-.8-.89C203.44,32,203.26,31.72,203.08,31.48Zm38-4.84c-.43.47-.92,1-1.44,1.54a27.44,27.44,0,0,1-8.76,6.09c-1.26.56-2.6.77-3.86,1.28a8,8,0,0,1-2.48.5,43.85,43.85,0,0,1-8,0,13.6,13.6,0,0,1-3.67-.59,2.07,2.07,0,0,0-.82-.18,1,1,0,0,0-.73.28,1,1,0,0,0,.09.78,6.46,6.46,0,0,0,.56.86c1.31,2,2.68,4,3.9,6.06a34.9,34.9,0,0,1,4,9.1,3.59,3.59,0,0,0,.3.8,5.58,5.58,0,0,1,.57,2.33c0,.34.07.69.12,1a1.21,1.21,0,0,0,1.14,1.1,13.66,13.66,0,0,0,1.69.08H256c.45,0,.91,0,1.36,0,1-.09,1.21-.32,1.49-1.32.42-1.54.84-3.09,1.37-4.6s1.12-2.88,1.77-4.28c.8-1.71,1.63-3.41,2.56-5.05a41,41,0,0,1,4.09-5.92,4.88,4.88,0,0,0,.42-.54.62.62,0,0,0-.42-.93,9.34,9.34,0,0,0-1.52,0,60.56,60.56,0,0,1-10.68,0,7.6,7.6,0,0,1-2.48-.51,4.84,4.84,0,0,0-1-.34,19.55,19.55,0,0,1-6.13-2.85,15.49,15.49,0,0,1-4-3.73A1.85,1.85,0,0,0,241.12,26.63Z" transform="translate(0.05 -0.56)"/><path class="e4f07a69-bedd-4e11-a7c0-0f0c65aeee3e" d="M596.84,64.61c-.06-.86-.11-1.72-.19-2.58a4.77,4.77,0,0,0-.27-1.17.87.87,0,0,0-.46-.46c-.31-.11-.52.13-.67.39a25.25,25.25,0,0,1-5.57,6.68,39.09,39.09,0,0,1-7.9,5.3c-1.15.61-2.35,1.13-3.52,1.7a1.28,1.28,0,0,1-1.57-.22.83.83,0,0,1,.06-1.33c1.08-.74,2.19-1.42,3.27-2.15a33.87,33.87,0,0,0,8.07-7.56A24.47,24.47,0,0,0,593,50.54a7.06,7.06,0,0,0-.63-3.86c-.45-.93-.87-1.88-1.37-2.77a1.23,1.23,0,0,0-2-.54c-.79.45-1.53,1-2.35,1.37-2.37,1.09-4.74,2.17-7.15,3.14-1,.42-2.15.66-3.21,1.08a5,5,0,0,1-1.83.18.86.86,0,0,1-.85-.71,1,1,0,0,1,.41-1.06,6.1,6.1,0,0,1,1.07-.5c1.62-.68,3.27-1.29,4.85-2.06a28.55,28.55,0,0,0,6.56-4.55,4.37,4.37,0,0,0,.34-.38c.94-1.07,1-1.51.12-2.71-1.31-1.8-2.66-3.58-4-5.36l-.72-1a1,1,0,0,1,0-1.28,1,1,0,0,1,1.17-.49,3.66,3.66,0,0,1,1.32.71c1.34,1.23,2.63,2.52,3.94,3.79.41.4.78.83,1.21,1.2a.75.75,0,0,0,1.07-.07,4,4,0,0,0,.65-.79,26.91,26.91,0,0,0,2.47-5.66,7.2,7.2,0,0,0,0-3.75c-.06-.28-.17-.55-.24-.83-.18-.79,0-1.27.46-1.49a1.4,1.4,0,0,1,1.85.72c.36.78.7,1.57,1,2.35.55,1.25,1.07,2.53,1.67,3.75a4.59,4.59,0,0,1-.16,4.89,25,25,0,0,1-3.42,4.48,6.89,6.89,0,0,0-.55.66,1.49,1.49,0,0,0-.13,1.9c.7,1.11,1.39,2.24,2.07,3.36a36.1,36.1,0,0,1,3.41,7.3c.56,1.66,1.39,3.29,1.35,5.13a1.93,1.93,0,0,0,.13.68,18.07,18.07,0,0,1,.78,6.3q0,2.67-.05,5.35a14.67,14.67,0,0,1-.58,4.08,2.6,2.6,0,0,0-.12.5,29.2,29.2,0,0,1-1.18,5.89c-.25.81-.44,1.64-.75,2.45-.45,1.17-.81,2.38-1.32,3.53-1.92,4.34-4.3,8.33-8,11.34a13.25,13.25,0,0,1-5.81,2.67,7.25,7.25,0,0,1-5.35-1.16,10.68,10.68,0,0,1-3.26-3,4.53,4.53,0,0,1-.52-.88.82.82,0,0,1,.14-1,1,1,0,0,1,1.11-.07,3.44,3.44,0,0,1,.63.57A8.62,8.62,0,0,0,580.11,96a2.85,2.85,0,0,0,2.76,0,11.8,11.8,0,0,0,3-2.23,32.13,32.13,0,0,0,5-7,52.46,52.46,0,0,0,3.7-8.31c.61-1.74.87-3.57,1.54-5.28a3.77,3.77,0,0,0,.22-1q.3-3.09.57-6.18c0-.46,0-.92,0-1.38Z" transform="translate(0.05 -0.56)"/><path class="e4f07a69-bedd-4e11-a7c0-0f0c65aeee3e" d="M441.43,48.68a1,1,0,0,0,1,.62c.56,0,1.13,0,1.7,0,2.15,0,4.3-.08,6.45-.13,1.41,0,2.83-.12,4.24-.16a26,26,0,0,1,2.88,0,28.07,28.07,0,0,0,5.76-.23,7.74,7.74,0,0,0,1.95-.54c.65-.27.77-.78.37-1.41s-.78-1.13-1.19-1.68-.81-1-1.17-1.48a5.48,5.48,0,0,1-.64-1.2,1.32,1.32,0,0,1,.36-1.42,1.38,1.38,0,0,1,1.59-.13,8.87,8.87,0,0,1,1.06.85c1.28,1.14,2.57,2.26,3.81,3.43,1.75,1.64,3.46,3.31,5.19,5a4.14,4.14,0,0,1,.58.62,1.19,1.19,0,0,1-.14,1.57,23.89,23.89,0,0,1-2,1.88,1.49,1.49,0,0,1-2.38-.22c-.35-.38-.63-.81-.94-1.22a2.76,2.76,0,0,0-2.82-1.18c-.45.08-.89.15-1.34.2l-4.55.47a7.75,7.75,0,0,0-1.18.11,32.05,32.05,0,0,1-6.75.6c-1.24.06-2.48.22-3.71.36s-2.36.3-3.53.46c-.67.09-1.35.16-2,.31a7.09,7.09,0,0,1-2.53.07,9,9,0,0,0-2.18,0q-3.46.39-6.91.87a2.87,2.87,0,0,1-2.91-1.35c-1.13-1.58-2.22-3.19-3.33-4.79a3.43,3.43,0,0,1-.3-.62A1,1,0,0,1,426,47a1.07,1.07,0,0,1,1.4-.08,4.09,4.09,0,0,1,.8.87,3.83,3.83,0,0,0,3,1.61c1.36.07,2.71.16,4.06.3a2,2,0,0,0,2-1,7.87,7.87,0,0,0,.71-1.37c1.44-3.56,2.65-7.21,3.79-10.88,0-.11.08-.22.1-.33.3-1.27-.12-1.87-1.42-1.87-2.6,0-5.21,0-7.81,0l-7,.05a1.73,1.73,0,0,1-1.69-.94,10.72,10.72,0,0,0-2-2.56,1.81,1.81,0,0,1-.56-1.22.68.68,0,0,1,.78-.7,3.08,3.08,0,0,1,.77.35,7.33,7.33,0,0,0,3.87,1.11c1.07,0,2.15.08,3.22.08q7,0,13.92,0a10.62,10.62,0,0,0,1.86-.15,1.28,1.28,0,0,0,1.22-1.41c0-2.13,0-4.26-.06-6.38a3.21,3.21,0,0,0-1.41-2.26c-.42-.38-.9-.69-1.33-1.07a.85.85,0,0,1-.29-1.07,1.09,1.09,0,0,1,1.27-.6,2.4,2.4,0,0,1,.62.27c.39.24.76.49,1.14.75a11.33,11.33,0,0,0,3,1.67,8,8,0,0,1,.92.44,3.59,3.59,0,0,1,2.3,4,28.67,28.67,0,0,0,0,3.79c0,1.45.35,1.76,1.81,1.95a3.9,3.9,0,0,0,.51,0l9.33-.07c1,0,1.92-.07,2.88-.07s2,0,3.06.06a4.33,4.33,0,0,0,3.17-.93c.83-.69,1.16-.65,1.94,0,1.24,1.09,2.44,2.23,3.64,3.36a1.63,1.63,0,0,1,.39.55.51.51,0,0,1-.27.72,5.82,5.82,0,0,1-1.48.23c-2.54,0-5.09.05-7.64.1-.9,0-1.8.16-2.7.19s-1.58,0-2.37-.06c-1.18-.08-2.37-.29-3.55-.28-2.94,0-5.89,0-8.82.19a6.46,6.46,0,0,0-5.79,4.14,52,52,0,0,1-5.1,8.52A3.4,3.4,0,0,0,441.43,48.68Z" transform="translate(0.05 -0.56)"/><path class="e4f07a69-bedd-4e11-a7c0-0f0c65aeee3e" d="M788.56,87.74a23.15,23.15,0,0,0-.88-3.86,9,9,0,0,0-5.06-5.3A6.38,6.38,0,0,0,775.71,80a4.44,4.44,0,0,0,1.72,7.41,8.05,8.05,0,0,0,2.51.29,3.47,3.47,0,0,0,2.71-1.22c.27-.29.51-.62.79-.9a.8.8,0,0,1,1.4.16A3.83,3.83,0,0,1,785.5,88c-.19,3.13-1.13,5.86-4,7.53-.2.11-.38.25-.57.37a13.32,13.32,0,0,1-6.51,2.27c-3.56.13-7.14.38-10.66-.48h0l-.13,0h0c-.12,0-.25,0-.38-.05h0l-.15,0,0,0h0l-.09,0h-.07a4.78,4.78,0,0,1-.54-.1l-.09,0a7.65,7.65,0,0,1-6.35-5.55.52.52,0,0,1-.1-.28.39.39,0,0,1-.07-.16v-.08a.54.54,0,0,1,0-.14,4.49,4.49,0,0,1-.23-.67,6.54,6.54,0,0,1-.25-1.32.49.49,0,0,1,0-.11.57.57,0,0,1,0-.17,14.06,14.06,0,0,1-.38-3.39c0-2.3,0-4.6,0-6.9q0-12.6,0-25.2,0-6,0-11.91a5,5,0,0,0,0-.52c-.09-.86-.43-1.29-1.27-1.35a32.26,32.26,0,0,0-3.56,0c-.83,0-1.18.45-1.28,1.33a16.37,16.37,0,0,0,0,1.72q0,11.31,0,22.61h0q0,11,0,22.09a9.53,9.53,0,0,0,.74,4.55,1.27,1.27,0,0,1,.15.49,9.15,9.15,0,0,0,1,2.9,5.44,5.44,0,0,0,2.62,2.82A13.75,13.75,0,0,0,757,99.73c.61.11,4.35,1,5.64,1.2,2.36.29,4.73.48,7.09.71a18.48,18.48,0,0,0,3.76,0,14.53,14.53,0,0,0,2.79-.56,6.39,6.39,0,0,1,1.33-.27,10.58,10.58,0,0,0,5.71-2.45,9.59,9.59,0,0,0,3.12-3.59c.8-1.89,1.36-3.9,2-5.86A2.52,2.52,0,0,0,788.56,87.74Z" transform="translate(0.05 -0.56)"/><path class="e4f07a69-bedd-4e11-a7c0-0f0c65aeee3e" d="M81.66,43.36a3.72,3.72,0,0,1,.78.51c1,1,2,2.07,2.91,3.14a1.88,1.88,0,0,1,.19,2.39c-.73,1.16-1.48,2.31-2.31,3.4a27,27,0,0,1-7,6.47A23,23,0,0,1,74,60.45a2,2,0,0,1-1.49.12A1,1,0,0,1,72,58.95c.41-.4.87-.73,1.3-1.11a20.67,20.67,0,0,0,5-6.86,1.2,1.2,0,0,0,0-.36A1.34,1.34,0,0,0,77,49.84h-7a7.8,7.8,0,0,0-1.19,0,1.36,1.36,0,0,0-1.31,1.5c0,.57,0,1.15,0,1.73q0,17.69,0,35.38c0,.63,0,1.27,0,1.9a6.27,6.27,0,0,1-4.09,6A18.29,18.29,0,0,1,59,97.49a35.73,35.73,0,0,1-9.81-.05,3.56,3.56,0,0,1-1.15-.27,1.09,1.09,0,0,1-.45-.66.68.68,0,0,1,.4-.85,6.18,6.18,0,0,1,1.65-.25c1.92,0,3.85,0,5.77,0a8.07,8.07,0,0,0,4.85-2.2,4.6,4.6,0,0,0,1.34-3.08c0-.57,0-1.15,0-1.73q0-17.77,0-35.55c0-.52,0-1,0-1.55a1.41,1.41,0,0,0-1.27-1.39A9,9,0,0,0,59,49.85c-3,0-6-.05-9,0a4.26,4.26,0,0,1-3.59-1.56c-.67-.78-1.38-1.52-2-2.32-.5-.61-.47-.77.12-1.73a8,8,0,0,1,1,.4,8.36,8.36,0,0,0,3.75,1c1,0,2,.1,3.05.1H78.15c.23,0,.45,0,.68,0a1.61,1.61,0,0,0,1.72-1.12C80.76,44.13,80.89,43.53,81.66,43.36Z" transform="translate(0.05 -0.56)"/><path class="e4f07a69-bedd-4e11-a7c0-0f0c65aeee3e" d="M649,35.51h-5.09c-.4,0-.79,0-1.19,0-1.28.11-1.84.67-1.87,2,0,2.18,0,4.37,0,6.56a10.26,10.26,0,0,1-.08,1.55c-.13.86-.5,1.26-1.33,1.31a24.12,24.12,0,0,1-3.22,0,1.5,1.5,0,0,1-1.45-1.44,8.86,8.86,0,0,1-.07-1.37c0-1.84,0-3.68,0-5.52,0-.35,0-.69,0-1-.08-1.47-.55-2-2-2-2.15,0-4.3,0-6.45,0-1.21,0-1.62.42-1.73,1.63,0,.51,0,1,0,1.55,0,1.78,0,3.57,0,5.35,0,.46,0,.92,0,1.38-.1,1.05-.47,1.48-1.47,1.53a21.8,21.8,0,0,1-2.88,0c-1.07-.08-1.48-.55-1.58-1.66,0-.4,0-.8,0-1.21,0-2,0-3.91,0-5.87a9.5,9.5,0,0,0-.06-1.38,1.3,1.3,0,0,0-1.21-1.24,7.51,7.51,0,0,0-1.18-.07c-2.09,0-4.19,0-6.28.06a4,4,0,0,1-3.61-1.48c-.61-.75-1.3-1.44-1.92-2.18a3.33,3.33,0,0,1-.53-.86.69.69,0,0,1,.21-.92,1.13,1.13,0,0,1,.8,0c.32.1.59.34.91.46a9.38,9.38,0,0,0,1.93.62,60.75,60.75,0,0,0,9.32.31c1.11,0,1.51-.47,1.59-1.59,0-.51,0-1,0-1.55a4.07,4.07,0,0,0-1.94-3.78,5.59,5.59,0,0,1-1-.87.83.83,0,0,1,0-1.11,1.32,1.32,0,0,1,.88-.38,2.13,2.13,0,0,1,1.1.34c1.93,1.3,3.82,2.66,5.76,4A2.69,2.69,0,0,1,624.53,29a7.77,7.77,0,0,0,0,1.21A1.36,1.36,0,0,0,626,31.53c.34,0,.68,0,1,0,1.87,0,3.73,0,5.6,0,1.54,0,2-.49,2.05-2.08,0-.29,0-.58,0-.86a4.08,4.08,0,0,0-2-4.07,3.3,3.3,0,0,1-.55-.4,1.18,1.18,0,0,1-.32-1.53,1.25,1.25,0,0,1,1.55-.23,3.23,3.23,0,0,1,.44.25c1.87,1.28,3.72,2.61,5.63,3.84A2.8,2.8,0,0,1,640.87,29c0,.29,0,.58,0,.86a1.56,1.56,0,0,0,1.31,1.56,5.78,5.78,0,0,0,1.18.09c1.24,0,2.49,0,3.73,0a4.65,4.65,0,0,0,3-.93c1-.72,1.36-.71,2.24.07,1.23,1.1,2.42,2.25,3.62,3.38a.77.77,0,0,1,.28.91.9.9,0,0,1-.8.55c-.45,0-.9,0-1.35,0H649Z" transform="translate(0.05 -0.56)"/><path class="e4f07a69-bedd-4e11-a7c0-0f0c65aeee3e" d="M397.66,70.12a2.92,2.92,0,0,1-.24.56,7.17,7.17,0,0,0-1.29,4.55,14.63,14.63,0,0,1-.3,2.91,23.92,23.92,0,0,0-.78,4.58,1.92,1.92,0,0,1-.17.84c-.8,1.54-.79,3.33-1.54,4.91a26.46,26.46,0,0,1-1.2,2.64c-.36.58-.72,1.17-1.11,1.73a6.71,6.71,0,0,1-3.82,2.4,2.64,2.64,0,0,1-3.25-1.18,4.18,4.18,0,0,0-2.76-1.85,19.93,19.93,0,0,1-2-.57,2.53,2.53,0,0,1-.86-.51.72.72,0,0,1-.18-.61.67.67,0,0,1,.48-.42,6.57,6.57,0,0,1,2,.19,12.31,12.31,0,0,0,4.36.47A4.47,4.47,0,0,0,389.17,88c.8-1.61,1-3.4,1.75-5,.17-2.19.76-4.29,1.13-6.44a27.07,27.07,0,0,0,.2-4.3c0-1.11-.33-1.43-1.41-1.51-.39,0-.79,0-1.19,0H365.2c-.4,0-.79,0-1.19,0a1.94,1.94,0,0,0-1.63,1.09,12.28,12.28,0,0,1-.65,1.21.92.92,0,0,1-1.34.29,9.93,9.93,0,0,1-1.53-1.08,1.43,1.43,0,0,1-.36-1.72,56.69,56.69,0,0,0,1.9-5.51c.44-1.6,1-3.16,1.5-4.74a15.31,15.31,0,0,0,.34-1.69c.22-1.19.39-2.38.66-3.56a3.91,3.91,0,0,0-1-3.82,7.83,7.83,0,0,1-.81-1.1.68.68,0,0,1,.09-.93.82.82,0,0,1,.93-.21,2.57,2.57,0,0,1,.6.32c1.27,1,2.52,2,3.79,2.91a2.1,2.1,0,0,1,.83,2.41c-.29,1.25.16,1.84,1.42,2a29.82,29.82,0,0,0,3.38.24c3.9,0,7.81,0,11.71.05.68,0,1.36,0,2,0a6.18,6.18,0,0,0,3.84-1.13,1.83,1.83,0,0,1,2.49.12c.84.68,1.69,1.35,2.51,2.05a2.27,2.27,0,0,1,.51.67.64.64,0,0,1-.53,1,8.46,8.46,0,0,1-1,.05l-11.88.12c-4,0-8,0-12.05.08a9.7,9.7,0,0,0-2,.23A2.93,2.93,0,0,0,365.55,62c-.06.16-.13.32-.18.48-.46,1.54-.89,3.09-1.39,4.62-.31,1,.05,1.64,1.17,1.81a8.3,8.3,0,0,0,1.19,0q11.8,0,23.6,0a4.46,4.46,0,0,0,3.28-1.1,1.82,1.82,0,0,1,2.49-.13A5.1,5.1,0,0,1,397.66,70.12Z" transform="translate(0.05 -0.56)"/><path class="e4f07a69-bedd-4e11-a7c0-0f0c65aeee3e" d="M200.41,70.05a.66.66,0,0,1,0,.21,9.53,9.53,0,0,0-1.69,6,11.39,11.39,0,0,1-.67,4.06,2,2,0,0,0-.18.66c.05,2-.74,3.82-1.21,5.7a17.88,17.88,0,0,1-2.6,5.77,7.38,7.38,0,0,1-4,2.75,4,4,0,0,1-1.34.13,1.92,1.92,0,0,1-1.73-.92,4.91,4.91,0,0,0-3.41-2.33,12.77,12.77,0,0,1-1.63-.48,2.84,2.84,0,0,1-.88-.48.72.72,0,0,1-.2-.6.75.75,0,0,1,.46-.43,3,3,0,0,1,2,.13,11.5,11.5,0,0,0,4.52.52,4.3,4.3,0,0,0,4.1-2.83,25.48,25.48,0,0,0,2-7.27,7.63,7.63,0,0,1,.23-1.36,31.16,31.16,0,0,0,.84-6.48c.12-1.67-.23-2.08-1.85-2.12-1,0-1.92,0-2.89,0H168c-.17,0-.34,0-.51,0a2.54,2.54,0,0,0-2.85,1.9,1.4,1.4,0,0,1-2.14.92,3.84,3.84,0,0,1-.59-.33c-1.18-.76-1.27-1.22-.77-2.58.58-1.55,1.09-3.13,1.62-4.7s1.11-3.36,1.64-5.05a11.77,11.77,0,0,0,.3-1.34,7.56,7.56,0,0,1,.23-1.36,19.23,19.23,0,0,0,.72-4.41,3.79,3.79,0,0,0-1.15-3.6,3.76,3.76,0,0,1-.8-1.1,1.06,1.06,0,0,1,0-.8.67.67,0,0,1,.88-.3,3.08,3.08,0,0,1,.91.43c1.22.93,2.39,1.93,3.63,2.83a2.1,2.1,0,0,1,.84,2.4,10.18,10.18,0,0,0-.27,2.22,1.47,1.47,0,0,0,1.54,1.68c1.07.11,2.15.16,3.22.17,4.75,0,9.51,0,14.26,0a5.42,5.42,0,0,0,3.68-1,1.68,1.68,0,0,1,2.32,0c1,.8,2,1.55,2.92,2.35a1.74,1.74,0,0,1,.42.72.61.61,0,0,1-.43.8,8.36,8.36,0,0,1-1.35.12q-7.13,0-14.26-.06c-3.45,0-6.9-.09-10.35-.1a7.85,7.85,0,0,0-2,.26,2.41,2.41,0,0,0-1.84,2A12.57,12.57,0,0,1,167,66a5.45,5.45,0,0,0-.34,1.68,1.07,1.07,0,0,0,.94,1.22,8.2,8.2,0,0,0,1.35.08q11.88,0,23.76,0a4.54,4.54,0,0,0,3.14-1c1-.89,1.81-.82,2.89.06A4.41,4.41,0,0,1,200.41,70.05Z" transform="translate(0.05 -0.56)"/><path class="e4f07a69-bedd-4e11-a7c0-0f0c65aeee3e" d="M467.22,74.89c0,3.22,0,6.44,0,9.67a9.35,9.35,0,0,0,.77,4.71,3,3,0,0,1,.21.83,2.62,2.62,0,0,0,2.18,2.15,14.75,14.75,0,0,0,4.73.21,3.27,3.27,0,0,0,2.79-2.67c.29-1,.5-2,.75-3a2.84,2.84,0,0,1,.28-.81.86.86,0,0,1,.52-.33c.12,0,.29.14.41.25a.52.52,0,0,1,.17.29c.23,1.85,1.19,3.47,1.64,5.24a9.11,9.11,0,0,1,.3,3.24,3.06,3.06,0,0,1-2.1,2.67,5.81,5.81,0,0,1-1.8.48c-2.94.12-5.86.61-8.81.41a8.73,8.73,0,0,1-4.71-1.76,3.87,3.87,0,0,1-1.39-1.91,20.49,20.49,0,0,1-.7-2.12,11.46,11.46,0,0,1-.29-2.38c0-5.52,0-11,0-16.57q0-4.23,0-8.46c0-.52,0-1-.05-1.55a3.75,3.75,0,0,0-1.36-2.68c-.44-.37-.9-.7-1.32-1.09a1,1,0,0,1-.14-1.26,1,1,0,0,1,1.34-.4A9.91,9.91,0,0,1,462,59a13.46,13.46,0,0,0,3.4,1.93l.31.13a2.24,2.24,0,0,1,1.46,2.29c0,1.78,0,3.57,0,5.35,0,2.07,0,4.14,0,6.21Z" transform="translate(0.05 -0.56)"/><path class="e4f07a69-bedd-4e11-a7c0-0f0c65aeee3e" d="M54,31.43a1.54,1.54,0,0,1,2.11-.77,37.44,37.44,0,0,1,4,1.86A44.19,44.19,0,0,1,63.82,35c1,.69,1.57.72,2.4-.1a26.81,26.81,0,0,0,4.19-5.39c.81-1.38.44-2-1.18-2-2.94,0-5.88,0-8.82,0-2.37,0-4.75,0-7.12,0a3.5,3.5,0,0,1-3-1.34c-.77-.92-1.61-1.77-2.42-2.65-.27-.3-.52-.63-.26-1.07s.66-.45,1.22-.27a1.67,1.67,0,0,1,.32.12,12.26,12.26,0,0,0,6.09,1.24c4.81,0,9.61,0,14.42,0a4.33,4.33,0,0,0,3.51-1.37,16.2,16.2,0,0,1,1.49-1.4,1.22,1.22,0,0,1,1.69-.12,5.22,5.22,0,0,1,.65.56c1.16,1.09,2.33,2.18,3.48,3.28.88.85.93,1.48.06,2.33-1.42,1.4-2.83,2.81-4.34,4.1-2.59,2.22-5.24,4.37-7.89,6.52a2.08,2.08,0,0,0-.87,2.24,5.86,5.86,0,0,1,.17,1.19,1.92,1.92,0,0,1-.88,1.75c-.48.31-.93.66-1.42.94a4.27,4.27,0,0,1-1.1.42.86.86,0,0,1-1.08-.59,5.54,5.54,0,0,1-.22-1,10,10,0,0,0-2.43-5,23.64,23.64,0,0,0-4.95-4.42A4.08,4.08,0,0,1,54,31.43Z" transform="translate(0.05 -0.56)"/><path class="e4f07a69-bedd-4e11-a7c0-0f0c65aeee3e" d="M803,79.11a4.86,4.86,0,0,1-.38,1.17,9.94,9.94,0,0,1-1.45,1.89,31.52,31.52,0,0,1-2.8,2.24,1.07,1.07,0,0,1-1.83-.64,2.92,2.92,0,0,1-.13-.68,23,23,0,0,0-.93-5.07,7,7,0,0,1-.23-1.53,9,9,0,0,0-.58-2.85,10.93,10.93,0,0,1-.39-1.85c0-.23,0-.46-.07-.69q-.76-3.61-1.53-7.22c0-.06,0-.11-.06-.16-.36-2.44-1.25-4.76-1.56-7.21a3.41,3.41,0,0,0,0-.34q-.71-3-1.42-6a6.46,6.46,0,0,1-.22-.65c-.26-2.12-1-4.11-1.43-6.19-.14-.73-.34-1.45-.51-2.18a3.38,3.38,0,0,1-.2-1,.91.91,0,0,1,.44-.65,1,1,0,0,1,.77.1,1.75,1.75,0,0,1,.51.67c.59,1.11,1.22,2.21,1.74,3.35,1,2.19,1.92,4.41,2.87,6.62a3.61,3.61,0,0,1,.27.81,27.57,27.57,0,0,0,2,6.2,10.53,10.53,0,0,1,.39,1.14c.94,3.19,1.86,6.39,2.81,9.58a7.49,7.49,0,0,0,.62,1.6,21.85,21.85,0,0,1,2,5.48c.2.77.51,1.52.77,2.28C802.56,77.91,802.75,78.51,803,79.11Z" transform="translate(0.05 -0.56)"/><path class="e4f07a69-bedd-4e11-a7c0-0f0c65aeee3e" d="M452.24,78.85c0,4.66,0,9.31,0,14a2.53,2.53,0,0,1-1.67,2.69c-.89.36-1.73.85-2.63,1.21s-1.64,0-1.74-1.14a6.72,6.72,0,0,1,0-.69c0-4.48.1-9,.14-13.45,0-2.47,0-4.94,0-7.41.07-2.64.22-5.27.35-7.91a11.36,11.36,0,0,0-.62-3.71A2.81,2.81,0,0,0,444.67,61a1.21,1.21,0,0,1-.63-1,.88.88,0,0,1,.85-1.05,3,3,0,0,1,1,.2,2.44,2.44,0,0,1,.55.39,18.57,18.57,0,0,0,4.12,2.37,2.63,2.63,0,0,1,1.79,2.8c-.06,1.78-.09,3.56-.1,5.34,0,2.3,0,4.6,0,6.9q0,.95,0,1.9Z" transform="translate(0.05 -0.56)"/><path class="e4f07a69-bedd-4e11-a7c0-0f0c65aeee3e" d="M776.78,55.6a4.23,4.23,0,0,1-.45,1.14,14.34,14.34,0,0,1-1.85,2c-1,.8-2,1.51-3,2.22-1.23.86-2.2.43-2.38-1.11-.32-2.86-1.08-5.64-1.67-8.44-.41-2-1.17-3.84-1.54-5.81s-1.32-3.56-1.32-5.5a2.67,2.67,0,0,0-.29-1,34.55,34.55,0,0,1-1.61-5.26,11.33,11.33,0,0,0-.48-1.47c-.75-1.86-1.53-3.71-2.29-5.57a3.28,3.28,0,0,1-.26-.82,1.33,1.33,0,0,1,.58-1.35l.29-.18c1.23-.73,1.62-.67,2.32.57.57,1,1,2,1.57,3.06.44.87.84,1.76,1.36,2.58a24,24,0,0,1,2,4.36,24.27,24.27,0,0,0,1.62,3.4,31.93,31.93,0,0,1,2.52,5.63c.69,2,1.59,3.93,2.43,5.87.64,1.47,1.34,2.92,2,4.38C776.51,54.71,776.63,55.16,776.78,55.6Z" transform="translate(0.05 -0.56)"/><path class="e4f07a69-bedd-4e11-a7c0-0f0c65aeee3e" d="M741.68,51.86c-.27,2.39-.53,4.79-.82,7.18-.26,2.16-.56,4.32-.86,6.49a14.17,14.17,0,0,1-.3,1.87,16,16,0,0,0-.65,3.9,1.13,1.13,0,0,1,0,.34c-.63,1.78-.9,3.66-1.4,5.48-.2.72-.39,1.43-.58,2.15-.07.28-.08.57-.17.84-.92,2.77-1.77,5.56-2.82,8.29-.45,1.16-1.18,1.77-2.45.68a40.63,40.63,0,0,1-2.93-2.86,2.32,2.32,0,0,1-.25-3,49.69,49.69,0,0,0,2.26-4.62,70.46,70.46,0,0,0,2.89-8.82c.52-1.94,1-3.88,1.6-5.8.86-2.85,1.9-5.65,2.64-8.53a38.68,38.68,0,0,0,1.49-5.64,2.48,2.48,0,0,1,.56-1.21.83.83,0,0,1,1.41.23,4.42,4.42,0,0,1,.33,1.32c.06.57,0,1.15,0,1.72Z" transform="translate(0.05 -0.56)"/><path class="e4f07a69-bedd-4e11-a7c0-0f0c65aeee3e" d="M438.49,68.37a6.3,6.3,0,0,0,0,1,6.78,6.78,0,0,1-.25,2.88,37.15,37.15,0,0,0-.92,4.73A25.31,25.31,0,0,1,436,82a26.54,26.54,0,0,1-2.5,5.27,26.93,26.93,0,0,1-5.8,6.7,48.26,48.26,0,0,1-6.21,4.2,2.09,2.09,0,0,1-1.79.28.75.75,0,0,1-.47-1.09,2.92,2.92,0,0,1,.74-.91,33,33,0,0,0,7.72-8.64,19.06,19.06,0,0,0,1.53-3.06c.62-1.47,1.18-3,1.71-4.48a10.1,10.1,0,0,0,.29-1.51c.18-1,.38-1.91.55-2.87a16.8,16.8,0,0,0,.4-2.54c.07-3,.06-6,.1-9a2.35,2.35,0,0,0-1-2.06,6.9,6.9,0,0,1-.93-.73,1.15,1.15,0,0,1-.13-1.29.91.91,0,0,1,1-.39,2.32,2.32,0,0,1,.93.38A19.78,19.78,0,0,0,436.7,63a2.91,2.91,0,0,1,1.85,2.83c0,.86,0,1.72,0,2.58Z" transform="translate(0.05 -0.56)"/><path class="e4f07a69-bedd-4e11-a7c0-0f0c65aeee3e" d="M399.06,91.12c.25.07.69.17,1.11.31.64.22,1.27.49,1.92.7A2.4,2.4,0,0,0,405.15,91c.14-.25.31-.48.45-.73l4.51-8.09a3.58,3.58,0,0,1,.25-.45c2.54-3.31,4.43-7.05,6.7-10.54.9-1.39,1.61-2.9,2.42-4.35.28-.5.56-1,.88-1.48.51-.76.92-.92,1.54-.68a1.64,1.64,0,0,1,1.19,1.69,5.58,5.58,0,0,1-.42,1.48c-.93,2.22-1.87,4.44-2.85,6.63-1.05,2.35-2.2,4.66-3.24,7-.46,1-.78,2.15-1.16,3.24a4.37,4.37,0,0,1-.33,1c-1.46,2.2-2.07,4.85-3.54,7-.57.85-.95,1.83-1.45,2.72a19.31,19.31,0,0,1-1.36,2.18,1.69,1.69,0,0,1-2.27.52,8.88,8.88,0,0,1-.87-.54,55.61,55.61,0,0,0-5.85-3.47A9.39,9.39,0,0,1,398.08,93a1.25,1.25,0,0,1-.36-.56C397.48,91.74,398,91.14,399.06,91.12Z" transform="translate(0.05 -0.56)"/><path class="e4f07a69-bedd-4e11-a7c0-0f0c65aeee3e" d="M494.11,97.4a8.64,8.64,0,0,1-1.11-.53c-1.25-.78-2.47-1.62-3.73-2.39-.72-.45-1.52-.78-2.25-1.21A17.07,17.07,0,0,1,485.2,92a1,1,0,0,1,.81-1.85,7.82,7.82,0,0,1,1.31.34c.65.21,1.28.48,1.93.66a2.46,2.46,0,0,0,3.15-1.29c.79-1.39,1.53-2.82,2.31-4.22s1.69-3,2.54-4.48a2.78,2.78,0,0,1,.18-.29c2.43-3.26,4.34-6.85,6.5-10.28,1.19-1.88,2.21-3.87,3.3-5.81.11-.2.21-.41.33-.6a1.14,1.14,0,0,1,1-.5,1.76,1.76,0,0,1,1.67,2.11,5,5,0,0,1-.31.8l-1.67,4c-.4.95-.78,1.9-1.22,2.83-1.17,2.48-2.36,4.95-3.53,7.42a2.32,2.32,0,0,0-.19.48A32,32,0,0,1,501,87.17c-1.18,2.68-2.62,5.21-4,7.79a17.23,17.23,0,0,1-1.23,1.86C495.43,97.27,494.94,97.41,494.11,97.4Z" transform="translate(0.05 -0.56)"/><path class="e4f07a69-bedd-4e11-a7c0-0f0c65aeee3e" d="M371.71,82.24c-4.13,0-8.26,0-12.38,0a4,4,0,0,1-3.56-1.56c-.41-.54-1-1-1.43-1.47a2.33,2.33,0,0,1-.47-.7.85.85,0,0,1,.13-1,.76.76,0,0,1,.94-.09,19.25,19.25,0,0,0,8.38,1.8c3.68,0,7.35,0,11,0,1.07,0,2.15,0,3.22,0a5.19,5.19,0,0,0,3-1c1.43-1,1.66-1,2.91.19l1.89,1.72c.17.15.36.29.51.45a1.08,1.08,0,0,1,.35,1.09c-.14.47-.56.52-1,.56s-.68,0-1,0H371.71Z" transform="translate(0.05 -0.56)"/><path class="e4f07a69-bedd-4e11-a7c0-0f0c65aeee3e" d="M174.46,82.24c-4.13,0-8.26,0-12.39,0a4.22,4.22,0,0,1-3.71-1.65c-.42-.54-1-1-1.42-1.48a1.74,1.74,0,0,1-.44-.71,1,1,0,0,1,.11-.79c.15-.16.5-.15.77-.18a.55.55,0,0,1,.32.09c1.49.91,3.24,1,4.85,1.52a6,6,0,0,0,1.85.21c4.92,0,9.85,0,14.77,0l1,0a5,5,0,0,0,3.16-1.06l.55-.41a1.22,1.22,0,0,1,1.58,0c1.09.92,2.13,1.88,3.18,2.85a1.28,1.28,0,0,1,.28.61.73.73,0,0,1-.56.92,9,9,0,0,1-1.35.09H174.46Z" transform="translate(0.05 -0.56)"/><path class="e4f07a69-bedd-4e11-a7c0-0f0c65aeee3e" d="M255.74,146.45c-.79.22-.86.81-.87,1.38,0,1.26,0,2.53,0,3.79,0,.34,0,.69,0,1a1.38,1.38,0,0,1-1.52,1.28,1.28,1.28,0,0,1-1.31-1.3c0-.4,0-.8,0-1.21,0-2.53,0-5.06,0-7.58a12.6,12.6,0,0,1,.06-1.37.74.74,0,0,1,.64-.71,8.14,8.14,0,0,1,2,0,1.78,1.78,0,0,1,1.1.71,17.42,17.42,0,0,0,2.42,2.64c.84.85,1.7,1.69,2.55,2.53l.86.83a1.06,1.06,0,0,0,1.09.3c.46-.15.49-.59.5-1,0-1.21,0-2.41,0-3.62,0-.4,0-.8,0-1.21,0-.89.38-1.22,1.27-1.24s1.33.3,1.34,1.33c0,2.3,0,4.6,0,6.89,0,.86,0,1.72,0,2.58a1.36,1.36,0,0,1-1.63,1.49,2.85,2.85,0,0,1-1.92-1c-1.85-1.93-3.74-3.83-5.63-5.73C256.41,147,256.05,146.71,255.74,146.45Z" transform="translate(0.05 -0.56)"/><path class="e4f07a69-bedd-4e11-a7c0-0f0c65aeee3e" d="M105.37,147.86q0,2.16,0,4.31c0,1.26-.53,1.79-1.75,1.74a2.62,2.62,0,0,1-1.92-.91c-1.83-2-3.72-3.85-5.61-5.74-.35-.35-.78-.79-1.33-.59s-.61.9-.61,1.47c0,1.21,0,2.41,0,3.62,0,.23,0,.46,0,.69a1.27,1.27,0,0,1-1.33,1.43,1.29,1.29,0,0,1-1.42-1.35c0-1.49,0-3,0-4.48s0-3.22,0-4.83c0-1.2.33-1.5,1.53-1.56a2.59,2.59,0,0,1,2.62,1.21,9.65,9.65,0,0,0,1.5,1.63c1.21,1.21,2.44,2.4,3.66,3.6a2.23,2.23,0,0,0,.5.46,1.72,1.72,0,0,0,.94.27c.47-.09.48-.58.48-1,0-1.26,0-2.53,0-3.79,0-.34,0-.69,0-1,0-1,.34-1.41,1.5-1.33a1.09,1.09,0,0,1,1.17,1.19c0,.69,0,1.38,0,2.07,0,1,0,2,0,2.93Z" transform="translate(0.05 -0.56)"/><path class="e4f07a69-bedd-4e11-a7c0-0f0c65aeee3e" d="M615.18,147.8q0,2.24,0,4.48c0,1.09-.48,1.61-1.51,1.63a2.75,2.75,0,0,1-2.23-1c-1.77-1.93-3.63-3.77-5.47-5.63a3.27,3.27,0,0,0-.69-.5c-.6-.35-1.11-.11-1.22.62a9.05,9.05,0,0,0-.06,1.37c0,1.21.05,2.41,0,3.62a1.33,1.33,0,0,1-1.8,1.39,1.22,1.22,0,0,1-.94-1.1,8.59,8.59,0,0,1,0-.86q0-4,0-7.92c0-.4,0-.81,0-1.2.05-.57.28-.88.8-1,1.27-.22,2.49-.26,3.28,1.09a4.67,4.67,0,0,0,.78.9q2.17,2.18,4.36,4.33c.44.43.89,1,1.58.68s.39-1,.39-1.57c0-1.44,0-2.87,0-4.31,0-.91.37-1.22,1.27-1.22s1.36.34,1.38,1.15c0,1.66,0,3.33,0,5Z" transform="translate(0.05 -0.56)"/><path class="e4f07a69-bedd-4e11-a7c0-0f0c65aeee3e" d="M134.82,147.58c0-1.32,0-2.64,0-4a4.79,4.79,0,0,1,.07-1.19,1,1,0,0,1,.53-.59,3.37,3.37,0,0,1,1.16-.18c2.2,0,4.4,0,6.61,0a6.64,6.64,0,0,1,3.21.95,3.26,3.26,0,0,1,0,5.36l-.15.08c-1.42.88-1.5,1.31-.48,2.7.44.6.94,1.15,1.37,1.75a.9.9,0,0,1-.57,1.45,2.45,2.45,0,0,1-2.63-1.08c-.6-.9-1.24-1.77-1.83-2.68A2.42,2.42,0,0,0,140,149c-.28,0-.57,0-.85,0-1,.09-1.31.35-1.36,1.37,0,.69,0,1.38,0,2.06s-.27,1.19-.8,1.36a1.81,1.81,0,0,1-2-.48,2,2,0,0,1-.22-1c0-1.61.08-3.21.12-4.82Zm6-.49h1.86a3.36,3.36,0,0,0,.5-.07,2.1,2.1,0,0,0,1.32-.7,1.23,1.23,0,0,0,0-1.83,2.35,2.35,0,0,0-1.67-.71c-1.07,0-2.14-.08-3.21-.06-1.52,0-1.86.43-1.8,2,0,.92.32,1.28,1.19,1.36C139.56,147.13,140.18,147.09,140.8,147.09Z" transform="translate(0.05 -0.56)"/><path class="e4f07a69-bedd-4e11-a7c0-0f0c65aeee3e" d="M217.94,147.6q0-2.07,0-4.14c0-.29,0-.58,0-.86a.88.88,0,0,1,.71-.86,1.35,1.35,0,0,1,.33-.06c2.66,0,5.32,0,8,0a5.51,5.51,0,0,1,2.81,1.13,3.2,3.2,0,0,1,.09,4.82c-.36.27-.78.47-1.14.74a1.11,1.11,0,0,0-.31,1.65c.47.71,1,1.39,1.52,2.08.14.18.3.35.42.54a.76.76,0,0,1-.4,1.12,2.41,2.41,0,0,1-3-1c-.5-.76-1-1.51-1.5-2.29-.84-1.39-2.13-1.58-3.56-1.39a1.06,1.06,0,0,0-1,1c-.07.74,0,1.49,0,2.24a1.4,1.4,0,0,1-1.39,1.6,1.34,1.34,0,0,1-1.59-1.52c0-1.61.09-3.22.13-4.83Zm6-.51v0a12.82,12.82,0,0,0,1.35,0,6.41,6.41,0,0,0,1.65-.3,1.43,1.43,0,0,0,.35-2.49,2.05,2.05,0,0,0-1.06-.46c-1.4-.08-2.81-.11-4.21-.08-.65,0-1,.42-1.1,1.09a4.2,4.2,0,0,0,0,.85,1.23,1.23,0,0,0,1.22,1.36C222.7,147.14,223.32,147.09,223.94,147.09Z" transform="translate(0.05 -0.56)"/><path class="e4f07a69-bedd-4e11-a7c0-0f0c65aeee3e" d="M549.16,147.61q0-2.33,0-4.66c0-1,.21-1.21,1.18-1.28.62,0,1.24,0,1.87,0,1.7,0,3.4,0,5.09,0a6.2,6.2,0,0,1,3.23.92,3.11,3.11,0,0,1,.51,5.09c-.29.26-.67.42-1,.66a1.24,1.24,0,0,0-.34,1.93c.41.62.88,1.19,1.33,1.79.17.23.37.44.52.68a.75.75,0,0,1-.3,1,2.31,2.31,0,0,1-2.86-.73c-.6-.83-1.21-1.67-1.75-2.54a3.08,3.08,0,0,0-3.41-1.34,1.1,1.1,0,0,0-1.1,1.11c-.07.74,0,1.49,0,2.24a1.28,1.28,0,0,1-1.18,1.42c-1.2.21-1.81-.35-1.79-1.59,0-1.55,0-3.11,0-4.66Zm6.15-.53h0c.56,0,1.13,0,1.69,0a3.62,3.62,0,0,0,1.14-.27,1.4,1.4,0,0,0,.28-2.55,1.56,1.56,0,0,0-.76-.35c-1.51-.06-3-.12-4.54-.1-.56,0-.88.46-1,1a4.48,4.48,0,0,0-.06.85c0,.86.38,1.3,1.19,1.38S554.64,147.08,555.31,147.08Z" transform="translate(0.05 -0.56)"/><path class="e4f07a69-bedd-4e11-a7c0-0f0c65aeee3e" d="M479,146.4c-.6.36-.57.9-.58,1.4,0,1.26,0,2.53,0,3.79,0,.29,0,.57,0,.86,0,1-.5,1.45-1.33,1.42a1.28,1.28,0,0,1-1.31-1.45c0-2.18.07-4.36.08-6.54,0-1,0-2.07-.05-3.1a.94.94,0,0,1,.87-1.07,3.16,3.16,0,0,1,3.18,1c1.69,1.92,3.58,3.66,5.39,5.47a4.2,4.2,0,0,0,.66.53.63.63,0,0,0,.95-.39,5,5,0,0,0,.15-1.19c0-1.26,0-2.53-.06-3.79,0-1.49.53-2,1.94-1.64a.84.84,0,0,1,.73.82c0,.17,0,.34,0,.52q0,4.65,0,9.3a1.29,1.29,0,0,1-1.12,1.47,2.48,2.48,0,0,1-2.47-.78c-1.82-1.88-3.66-3.75-5.47-5.64A3,3,0,0,0,479,146.4Z" transform="translate(0.05 -0.56)"/><path class="e4f07a69-bedd-4e11-a7c0-0f0c65aeee3e" d="M501.72,153.92h-2.89a5.34,5.34,0,0,1-1-.08,1.21,1.21,0,0,1-1-1.34c.05-2.3.11-4.6.13-6.89,0-.92-.08-1.84-.1-2.76,0-.73.25-1,1-1.15a4.31,4.31,0,0,1,.68-.05c2.15,0,4.3,0,6.45,0a6.46,6.46,0,0,1,3.92,1.45,6.34,6.34,0,0,1,1.88,6.56,5.51,5.51,0,0,1-4.92,4.13c-1.35.15-2.71.12-4.07.17Zm-2-6.2h0c0,.74,0,1.49,0,2.23,0,1.55.5,2,2.06,2.07a20.81,20.81,0,0,0,2.2,0c3.56-.24,4.4-2.36,4.11-5a3.33,3.33,0,0,0-3-3.17,26.35,26.35,0,0,0-3.88-.07c-1,0-1.36.46-1.42,1.55C499.66,146.11,499.7,146.91,499.7,147.72Z" transform="translate(0.05 -0.56)"/><path class="e4f07a69-bedd-4e11-a7c0-0f0c65aeee3e" d="M120.1,141.54a8.63,8.63,0,0,1,5.75,2,5.45,5.45,0,0,1-.26,8.73,9.91,9.91,0,0,1-11.43-.16,5.39,5.39,0,0,1-1.73-6.46,6,6,0,0,1,2.61-2.85A8.65,8.65,0,0,1,120.1,141.54Zm-.17,2.2a5.49,5.49,0,0,0-4.77,2.47,2.77,2.77,0,0,0-.23,2.79,4.42,4.42,0,0,0,1.79,2,5.93,5.93,0,0,0,6.59-.09,3.54,3.54,0,0,0,.15-6.13A5.73,5.73,0,0,0,119.92,143.74Z" transform="translate(0.05 -0.56)"/><path class="e4f07a69-bedd-4e11-a7c0-0f0c65aeee3e" d="M408.54,22.15a5.15,5.15,0,0,1,1.13.66c.65.64,1.23,1.34,1.82,2,1.38,1.67,2.75,3.35,4.13,5,1.23,1.5,2.47,3,3.69,4.49a1.26,1.26,0,0,1-.18,1.95c-.21.19-.43.37-.65.55a2,2,0,0,1-3-.07c-1-.87-1.95-1.75-2.87-2.68-1.09-1.09-2.12-2.23-3.17-3.35s-2.24-2.43-3.38-3.62-1.16-1.72,0-2.87c.56-.56,1.14-1.12,1.73-1.65A5.12,5.12,0,0,1,408.54,22.15Z" transform="translate(0.05 -0.56)"/><path class="e4f07a69-bedd-4e11-a7c0-0f0c65aeee3e" d="M328.62,143.21a5.92,5.92,0,0,1-.29.82c-.47.89-.86,1-1.8.72a3.13,3.13,0,0,1-.62-.28,7.29,7.29,0,0,0-4.77-.72,2.39,2.39,0,0,0-1.21.52.93.93,0,0,0,.29,1.65,14.31,14.31,0,0,0,2.32.48c1.17.17,2.36.27,3.53.45a4.51,4.51,0,0,1,2.13,1,3.1,3.1,0,0,1,.26,4.19,5.16,5.16,0,0,1-2.25,1.48,12.92,12.92,0,0,1-8.49-.29l-.31-.14a1.14,1.14,0,0,1-.61-1.29,1.15,1.15,0,0,1,1.3-.85,8.74,8.74,0,0,1,1.59.6,7.6,7.6,0,0,0,4,.51,3.7,3.7,0,0,0,1.88-.72,1.05,1.05,0,0,0-.12-1.83,4.25,4.25,0,0,0-1.47-.35c-1-.09-2-.12-3-.18a6.84,6.84,0,0,1-2.6-.71,3,3,0,0,1-.47-5.42,6.78,6.78,0,0,1,3.45-1.29,14.52,14.52,0,0,1,6.93,1.27C328.34,142.86,328.4,143,328.62,143.21Z" transform="translate(0.05 -0.56)"/><path class="e4f07a69-bedd-4e11-a7c0-0f0c65aeee3e" d="M342.19,141.51c1.88-.19,3.56.56,5.29,1.11.4.13.74.34.72.83a1.29,1.29,0,0,1-.73,1.26,2.15,2.15,0,0,1-1,.12,1.82,1.82,0,0,1-.78-.32c-1.53-1-3.23-.92-4.93-.77a1.58,1.58,0,0,0-1.45,1,.71.71,0,0,0,.23.92,3.69,3.69,0,0,0,1.24.52c.83.15,1.69.19,2.53.3s1.8.23,2.68.4a4.11,4.11,0,0,1,1.27.47,3,3,0,0,1,.64,4.94,4.71,4.71,0,0,1-2,1.22,13.2,13.2,0,0,1-8.51-.31,1.57,1.57,0,0,1-.67-.49,1.06,1.06,0,0,1-.1-1.14.91.91,0,0,1,.94-.61,5.62,5.62,0,0,1,1.61.47,7.75,7.75,0,0,0,4,.63,4.07,4.07,0,0,0,2.21-.8,1,1,0,0,0-.16-1.8,4,4,0,0,0-1.31-.31c-1-.09-2-.13-3.05-.18a9.51,9.51,0,0,1-2.78-.71,3,3,0,0,1-.74-5.2,5.5,5.5,0,0,1,3-1.44C340.95,141.57,341.57,141.55,342.19,141.51Z" transform="translate(0.05 -0.56)"/><path class="e4f07a69-bedd-4e11-a7c0-0f0c65aeee3e" d="M297,147.75c0-1.32,0-2.64,0-4a12,12,0,0,1,0-1.2.89.89,0,0,1,.75-.83,6.48,6.48,0,0,1,1.18-.11l8.65-.07c.17,0,.34,0,.51,0a1,1,0,0,1,1,1.1,1,1,0,0,1-1.07,1.08c-.28,0-.57,0-.85,0l-5.26,0a5.35,5.35,0,0,0-1,.07,1.19,1.19,0,0,0-1.07,1.15,1.34,1.34,0,0,0,.77,1.41,3,3,0,0,0,1.15.23c1,0,2-.07,3-.12a.9.9,0,0,1,1,.49,1.39,1.39,0,0,1-.19,1.6,1.3,1.3,0,0,1-.78.22c-1,0-1.92-.11-2.88-.14a3.63,3.63,0,0,0-1,.1,1.4,1.4,0,0,0-1.16,1.48,1.51,1.51,0,0,0,1.28,1.58,5.09,5.09,0,0,0,1,.06l5.26,0a8,8,0,0,1,.85,0,1,1,0,0,1,1,1,1.12,1.12,0,0,1-.87,1.12,4.35,4.35,0,0,1-.84.05c-2.71,0-5.43-.1-8.14,0-2.23,0-2.5-.79-2.34-2.39a8.55,8.55,0,0,0,0-.86q0-1.47,0-2.93Z" transform="translate(0.05 -0.56)"/><path class="e4f07a69-bedd-4e11-a7c0-0f0c65aeee3e" d="M505.74,37.48a4.18,4.18,0,0,1-1-.58c-1.19-1.06-2.37-2.13-3.47-3.28-1.34-1.39-2.6-2.87-3.91-4.29-.69-.75-1.43-1.46-2.14-2.2a2.12,2.12,0,0,1-.76-1.3,1.66,1.66,0,0,1,.54-1.39c.62-.58,1.22-1.2,1.85-1.77a1.27,1.27,0,0,1,2.05.13c1.45,1.76,2.83,3.57,4.26,5.34s3.07,3.81,4.61,5.71c.18.22.42.39.58.62.64,1,.41,1.42-.2,1.95A2.9,2.9,0,0,1,505.74,37.48Z" transform="translate(0.05 -0.56)"/><path class="e4f07a69-bedd-4e11-a7c0-0f0c65aeee3e" d="M632.7,147.91c.79,0,1.58,0,2.37,0s1.21.41,1.28,1.29c.05.63.07,1.26.09,1.89a1.87,1.87,0,0,1-1.22,2l-.16.06a14.07,14.07,0,0,1-8.83.34,7.12,7.12,0,0,1-1.39-.61,5.83,5.83,0,0,1-2.52-7.29,5.15,5.15,0,0,1,1.07-1.73,6.86,6.86,0,0,1,4.12-2.2,13.41,13.41,0,0,1,7.33.75,2.3,2.3,0,0,1,.59.33.76.76,0,0,1,.25.43,1.36,1.36,0,0,1-1.61,1.48,2,2,0,0,1-.47-.2,7.82,7.82,0,0,0-5.27-.72,4.15,4.15,0,0,0-3.32,2.38,4,4,0,0,0,1.32,5,4.86,4.86,0,0,0,2.85,1c.85,0,1.69,0,2.54-.06a2.67,2.67,0,0,0,1.7-.68,1,1,0,0,0-.22-1.7,3.52,3.52,0,0,0-1.31-.23c-.45,0-.9.12-1.35.14a.83.83,0,0,1-.85-.88.8.8,0,0,1,.79-.92c.73,0,1.47.06,2.2.09Z" transform="translate(0.05 -0.56)"/><path class="e4f07a69-bedd-4e11-a7c0-0f0c65aeee3e" d="M202.44,141.64c1.07,0,2.15,0,3.22,0a5.85,5.85,0,0,1,3.32,1.14,2.31,2.31,0,0,1,.74.9,3.73,3.73,0,0,1,.27,2.52,2.7,2.7,0,0,1-1.46,2,6.46,6.46,0,0,1-2.9.84l-2.88,0a12.38,12.38,0,0,0-1.35.05c-.87.11-1.16.42-1.24,1.34,0,.51,0,1,0,1.55a6.2,6.2,0,0,1,0,.86,1.05,1.05,0,0,1-.85,1,3.08,3.08,0,0,1-1,0,1.21,1.21,0,0,1-1.13-1.42c0-2.35.09-4.7.12-7.05,0-.69-.06-1.38-.09-2.06-.05-1.35.15-1.58,1.52-1.65.68,0,1.36,0,2,0h1.69Zm1.09,2.19v.06c-.73,0-1.46,0-2.19,0a1.11,1.11,0,0,0-1,.59,1.49,1.49,0,0,0,1.09,2.3c.95.09,1.91.05,2.87.05a8.07,8.07,0,0,0,1.35-.09,1.86,1.86,0,0,0,1.52-1.41c0-.61-.8-1.36-1.64-1.48a5.15,5.15,0,0,0-.67,0Z" transform="translate(0.05 -0.56)"/><path class="e4f07a69-bedd-4e11-a7c0-0f0c65aeee3e" d="M417.63,54.35a2.09,2.09,0,0,1-.14.64,3.8,3.8,0,0,1-2.18,1.79,2.07,2.07,0,0,1-1.14-.16,4.3,4.3,0,0,1-1-.68l-7.86-6.27c-1.58-1.27-1.6-1.73-.14-3.07.54-.5,1.09-1,1.65-1.48a1.54,1.54,0,0,1,2.39,0c.34.3.63.66.95,1L415,51.18c.71.74,1.44,1.46,2.11,2.24A4.13,4.13,0,0,1,417.63,54.35Z" transform="translate(0.05 -0.56)"/><path class="e4f07a69-bedd-4e11-a7c0-0f0c65aeee3e" d="M503.67,55.82a6.39,6.39,0,0,1-1.06-.6c-1.52-1.19-3-2.43-4.51-3.64-1.06-.85-2.14-1.69-3.2-2.53-.31-.25-.61-.52-.92-.75a1.37,1.37,0,0,1-.06-2.22c.74-.7,1.49-1.41,2.28-2.06a1.43,1.43,0,0,1,2,0,7.31,7.31,0,0,1,1.21,1.2,66.05,66.05,0,0,0,4.7,5c.67.7,1.36,1.38,2,2.1.85,1,.81,1.57-.1,2.52A2.58,2.58,0,0,1,503.67,55.82Z" transform="translate(0.05 -0.56)"/><path class="e4f07a69-bedd-4e11-a7c0-0f0c65aeee3e" d="M467,153.93a1.83,1.83,0,0,1-1.82-1,1.87,1.87,0,0,1-.16-.3,2.22,2.22,0,0,0-2.53-1.55c-.9,0-1.81,0-2.71,0a2.18,2.18,0,0,0-2.46,1.64A1.56,1.56,0,0,1,456,153.9a1.07,1.07,0,0,1-1.08-.32.94.94,0,0,1-.09-1.12c.32-.61.66-1.2,1-1.82,1.07-2.09,2.15-4.17,3.19-6.27a9.25,9.25,0,0,0,.57-1.62,1.41,1.41,0,0,1,1.36-1.09,5.36,5.36,0,0,1,.85,0,1.39,1.39,0,0,1,1.45,1.18,12.2,12.2,0,0,0,1.53,3.25c1.1,2.08,2.26,4.12,3.4,6.17.06.1.13.19.17.3a.86.86,0,0,1-.53,1.24A7.65,7.65,0,0,1,467,153.93Zm-4.19-5.48c-.14-.43-.29-.91-.46-1.38a2.57,2.57,0,0,0-.32-.6.92.92,0,0,0-1.64,0,16.31,16.31,0,0,0-.79,1.51.67.67,0,0,0,.5,1,5.15,5.15,0,0,0,1,.1C461.7,149.11,462.34,149.17,462.81,148.45Z" transform="translate(0.05 -0.56)"/><path class="e4f07a69-bedd-4e11-a7c0-0f0c65aeee3e" d="M685.54,154a1.92,1.92,0,0,1-2.1-1.45,2,2,0,0,0-2.19-1.49H678a2,2,0,0,0-2.11,1.36,3.09,3.09,0,0,1-.64,1,1.34,1.34,0,0,1-1.39.42.89.89,0,0,1-.62-1.2c.06-.16.16-.3.24-.45,1.27-2.5,2.55-5,3.8-7.5a18,18,0,0,0,.85-2.06,1.21,1.21,0,0,1,1.1-.92,9,9,0,0,1,1.18,0,1.13,1.13,0,0,1,1.12.87,30.31,30.31,0,0,0,2.42,4.91c.81,1.57,1.71,3.1,2.58,4.64a3.8,3.8,0,0,1,.23.46,1,1,0,0,1-.8,1.39C685.82,154,685.65,154,685.54,154ZM678,148.47c.09.13.13.26.22.32a3.17,3.17,0,0,0,2.75.12.53.53,0,0,0,.3-.71,15.24,15.24,0,0,0-.8-1.69c-.39-.71-.93-.75-1.48-.13A4.42,4.42,0,0,0,678,148.47Z" transform="translate(0.05 -0.56)"/><path class="e4f07a69-bedd-4e11-a7c0-0f0c65aeee3e" d="M167.63,153.91a1.88,1.88,0,0,1-2-1.13.83.83,0,0,1-.07-.16c-.35-1.3-1.3-1.62-2.48-1.59-.9,0-1.81,0-2.71,0a2.17,2.17,0,0,0-2.48,1.61,2.43,2.43,0,0,1-.29.62,1.47,1.47,0,0,1-1.31.66,1,1,0,0,1-.91-1.3,9.48,9.48,0,0,1,.51-1.09c1.23-2.39,2.48-4.76,3.69-7.16a13.5,13.5,0,0,0,.64-1.77,1.16,1.16,0,0,1,1-.85,6.72,6.72,0,0,1,1.51,0,1.16,1.16,0,0,1,1,.84c1.17,3.19,3.08,6,4.63,9,.11.2.23.4.34.6.63,1.12.32,1.71-.94,1.78Zm-4.24-5.51a5,5,0,0,0-.9-2.06.85.85,0,0,0-1.43.07,5.71,5.71,0,0,0-.42.74c-.24.49-.79,1-.39,1.56s1,.4,1.57.4A1.46,1.46,0,0,0,163.39,148.4Z" transform="translate(0.05 -0.56)"/><path class="e4f07a69-bedd-4e11-a7c0-0f0c65aeee3e" d="M660.29,154.07a9.69,9.69,0,0,1-5-1.59,5.67,5.67,0,0,1,.73-9.78,10.8,10.8,0,0,1,8.71-.57,13.59,13.59,0,0,1,1.43.53.75.75,0,0,1,.36,1.14,1.43,1.43,0,0,1-2.23.74,7.54,7.54,0,0,0-4.09-.86,5.44,5.44,0,0,0-2.86.94,3.75,3.75,0,0,0,.32,6.52,5.68,5.68,0,0,0,4.9.58c1-.35,2-.81,3-1.22a.8.8,0,0,1,1.14.39c.38.6.39,1,0,1.39a4.92,4.92,0,0,1-.85.56A13.56,13.56,0,0,1,660.29,154.07Z" transform="translate(0.05 -0.56)"/><path class="e4f07a69-bedd-4e11-a7c0-0f0c65aeee3e" d="M534.72,141.53a10.68,10.68,0,0,1,4.79,1.08c.61.27.73.65.42,1.23-.54,1-1.14,1.29-2.23.66a7.57,7.57,0,0,0-4.42-.81,5.07,5.07,0,0,0-2.92,1.25,3.77,3.77,0,0,0,.65,6.12,5.89,5.89,0,0,0,5.21.59c.84-.31,1.67-.68,2.5-1a1.09,1.09,0,0,1,1.49.32.93.93,0,0,1-.15,1.37,4.84,4.84,0,0,1-1,.63,10.92,10.92,0,0,1-8.73.42,6.24,6.24,0,0,1-3.32-2.8,5.7,5.7,0,0,1,2.52-7.88A8.66,8.66,0,0,1,534.72,141.53Z" transform="translate(0.05 -0.56)"/><path class="e4f07a69-bedd-4e11-a7c0-0f0c65aeee3e" d="M287.58,143.11a1.67,1.67,0,0,1-.07.43c-.79,1.43-1.16,1.61-2.55.87a7.53,7.53,0,0,0-4.62-.67,4.29,4.29,0,0,0-3.22,2,3.71,3.71,0,0,0,1.3,5.34,6,6,0,0,0,5.06.64,10.93,10.93,0,0,0,2.65-1.12,1,1,0,0,1,1.56.5,1,1,0,0,1-.26,1.23,4.65,4.65,0,0,1-.86.54,10.67,10.67,0,0,1-8.88.47,5.64,5.64,0,0,1-3.86-6.16,5.46,5.46,0,0,1,3.19-4.54,10.77,10.77,0,0,1,8.71-.43C286.35,142.4,287.07,142.44,287.58,143.11Z" transform="translate(0.05 -0.56)"/><path class="e4f07a69-bedd-4e11-a7c0-0f0c65aeee3e" d="M699,141.61h4.41a10.18,10.18,0,0,1,1.19,0,.94.94,0,0,1,.93,1,1,1,0,0,1-1,1.16c-.5,0-1,0-1.52,0-.34,0-.68,0-1,0-1.14.08-1.55.42-1.58,1.58-.06,2.07,0,4.14,0,6.21,0,.29,0,.57,0,.86a1.27,1.27,0,0,1-1.35,1.42c-1,0-1.59-.45-1.61-1.36,0-1.9,0-3.8,0-5.69a13.82,13.82,0,0,0-.07-1.72c-.12-.9-.44-1.21-1.32-1.27-.62,0-1.24,0-1.87,0a5.16,5.16,0,0,1-1-.07,1,1,0,0,1-.81-1.14,1,1,0,0,1,.83-.95,6.74,6.74,0,0,1,1.18-.07H699Z" transform="translate(0.05 -0.56)"/><path class="e4f07a69-bedd-4e11-a7c0-0f0c65aeee3e" d="M570.37,142a3.75,3.75,0,0,1,3.23-.07c.31.12.5.58.71.91.51.82,1,1.66,1.51,2.48a1.56,1.56,0,0,0,1.5.76,9.6,9.6,0,0,0,2.51-3.13c.8-1.35,1.41-1.58,3.11-.93.16.64-.3,1-.63,1.48-.93,1.23-1.83,2.48-2.82,3.65a5.61,5.61,0,0,0-1.34,4.3,9,9,0,0,1,.05,1.2,1.34,1.34,0,0,1-1.52,1.27,1.26,1.26,0,0,1-1.35-1.24,8.48,8.48,0,0,1,.05-1.37,5,5,0,0,0-1.2-3.82c-1.11-1.38-2.17-2.79-3.24-4.2A1.81,1.81,0,0,1,570.37,142Z" transform="translate(0.05 -0.56)"/><path class="e4f07a69-bedd-4e11-a7c0-0f0c65aeee3e" d="M240.59,147.51c0-1.49,0-3,0-4.48,0-1,.29-1.33,1.3-1.36a3.88,3.88,0,0,1,.68,0,1,1,0,0,1,.94,1c0,.4,0,.8,0,1.2q0,4,0,8.09c0,.11,0,.23,0,.34,0,1.09-.52,1.58-1.57,1.53s-1.4-.53-1.39-1.55c0-.8,0-1.61,0-2.41s0-1.61,0-2.41Z" transform="translate(0.05 -0.56)"/><path class="e4f07a69-bedd-4e11-a7c0-0f0c65aeee3e" d="M592.64,147.77q0,2.32,0,4.64a1.37,1.37,0,0,1-1.73,1.52,1.35,1.35,0,0,1-1.24-1.55c0-2.35,0-4.7.06-7,0-.86,0-1.72,0-2.58a1,1,0,0,1,.9-1.05,3.05,3.05,0,0,1,.5-.05c1.2,0,1.56.32,1.52,1.47-.05,1.55,0,3.09,0,4.64Z" transform="translate(0.05 -0.56)"/><path class="e4f07a69-bedd-4e11-a7c0-0f0c65aeee3e" d="M358.13,155.32c-1.15.67-1.48.74-1.55.66s.73-.71.67-1.46-.94-.81-1.12-1.64c-.14-.65.16-1.68.91-1.82a1.79,1.79,0,0,1,1.56.37,1.92,1.92,0,0,1,.55,1.38A3.45,3.45,0,0,1,358.13,155.32Z" transform="translate(0.05 -0.56)"/><path class="e4f07a69-bedd-4e11-a7c0-0f0c65aeee3e" d="M714.31,151a1.46,1.46,0,0,1,1.6,1.41,1.67,1.67,0,0,1-1.43,1.46,1.55,1.55,0,0,1-1.66-1.56A1.36,1.36,0,0,1,714.31,151Z" transform="translate(0.05 -0.56)"/><path class="e4f07a69-bedd-4e11-a7c0-0f0c65aeee3e" d="M161.06,146.41a.85.85,0,0,1,1.43-.07,5,5,0,0,1,.9,2.06,1.46,1.46,0,0,1-1.57.71c-.55,0-1.21.13-1.57-.4" transform="translate(0.05 -0.56)"/><path class="e4f07a69-bedd-4e11-a7c0-0f0c65aeee3e" d="M124.7,43.67H110.13a2.24,2.24,0,0,1-1.67-.72c-.86-.91-1.76-1.78-2.59-2.72a1.31,1.31,0,0,1-.39-1.55c.24-.46.82-.52,1.66,0a7,7,0,0,0,4,1l20.34.06a3.71,3.71,0,0,0,2.79-1c.73-.7,1.31-.63,2.09.06,1.11,1,2.2,2,3.29,3a1.18,1.18,0,0,1,.34.38,2,2,0,0,1,.24,1c-.07.37-.47.45-.82.47s-.68,0-1,0H124.7Z" transform="translate(0.05 -0.56)"/><path class="e4f07a69-bedd-4e11-a7c0-0f0c65aeee3e" d="M540.19,49c-3.56,0-7.12-.06-10.68,0a3.57,3.57,0,0,1-3.31-1.65c-.48-.71-1-1.36-1.53-2.06a2.41,2.41,0,0,1-.32-.79.61.61,0,0,1,.58-.7,2.21,2.21,0,0,1,1,.25,6.62,6.62,0,0,0,3.9.92c3.5,0,7,0,10.51.05,1.64,0,3.28,0,4.92,0a3.52,3.52,0,0,0,2.66-.86c.8-.73,1.29-.64,2,.14s1.71,1.83,2.54,2.77a1.81,1.81,0,0,1,.35.76.83.83,0,0,1-.77,1.09,7.82,7.82,0,0,1-.85,0Z" transform="translate(0.05 -0.56)"/><path class="e4f07a69-bedd-4e11-a7c0-0f0c65aeee3e" d="M629.7,58c.41.42.73.61.84.89a7.33,7.33,0,0,1,.47,1.65c.15.91.23,1.82.33,2.74a4.49,4.49,0,0,0,3.76,4.07,40,40,0,0,0,5.68,1,1.71,1.71,0,0,1,1.53.79c-.26.18-.46.41-.69.46a11.45,11.45,0,0,1-2.18.32,23.37,23.37,0,0,0-5,1,3.47,3.47,0,0,0-2.07,1.69,6.27,6.27,0,0,0-1,3.23c-.07,2.58-.24,5.17-.42,7.75a15.38,15.38,0,0,1-.44,2.37,2.37,2.37,0,0,1-.41.74c-.05.08-.2.09-.41.17a2.79,2.79,0,0,1-.28-.72q-.47-5.5-.9-11a4.6,4.6,0,0,0-3.75-4.47,22.8,22.8,0,0,0-5-.85,2.12,2.12,0,0,1-1.88-.76c.17-.17.29-.39.47-.47a2.48,2.48,0,0,1,1-.28,38,38,0,0,0,5.51-.94,4.3,4.3,0,0,0,3.82-3.8c.27-1.53.49-3.06.74-4.59C629.45,58.7,629.54,58.5,629.7,58Z" transform="translate(0.05 -0.56)"/><path class="e4f07a69-bedd-4e11-a7c0-0f0c65aeee3e" d="M258.39,47.56a4.9,4.9,0,0,1-1.05.54,7.26,7.26,0,0,1-1.35.06h-29c-2.81,0-2.46,0-4.21-1.94-.62-.67-1.23-1.35-1.8-2.07a.93.93,0,0,1-.17-1.12c.22-.34.68-.43,1.23-.15a15.3,15.3,0,0,0,7.07,1.48c5.55,0,11.09,0,16.64,0,1,0,2,0,3.06,0a3.71,3.71,0,0,0,2.82-1c1-1,1.75-1,2.9.15.88.9,1.84,1.71,2.74,2.58C257.59,46.54,257.88,47,258.39,47.56Z" transform="translate(0.05 -0.56)"/><path class="e4f07a69-bedd-4e11-a7c0-0f0c65aeee3e" d="M412.56,183.2" transform="translate(0.05 -0.56)"/><path class="e4f07a69-bedd-4e11-a7c0-0f0c65aeee3e" d="M238.12,3.87q0-.88,1.31-1.21a2,2,0,0,1,1.42.22c0,.07.05.09.05.06q.49.33.49.5a8.65,8.65,0,0,1-.22,1.21q-.16.66-.44.77a.69.69,0,0,1-.33.17q-.38.11-.44.28a3,3,0,0,0,1.31-.11h.55a1.74,1.74,0,0,1,.66.22l-.22.11a1.11,1.11,0,0,0,.22.33c0,.15,0,.22-.11.22a3.71,3.71,0,0,1-1.15.22h-.38a.48.48,0,0,1-.22.06q-.55,0-.55.28v.55a2.33,2.33,0,0,1,.11,1,1.75,1.75,0,0,0,.38-.39q1-1.16,1.7-.61l-.11.11q.27.33-.22.55a1.46,1.46,0,0,1-.33-.06.66.66,0,0,0-.33-.17l-.55.39-.55.39v.11a4.29,4.29,0,0,0,1.86,1,6.3,6.3,0,0,1,1.53.66,1.47,1.47,0,0,1-.71.22q-.66.06-.82.33a2.6,2.6,0,0,1-1.15-.39l-.71-.39v1.33a1.11,1.11,0,0,0-.49.66,2.91,2.91,0,0,0-.16.39s-.07,0-.11.11a2.41,2.41,0,0,1-.22.33c-.15,0-.27-.13-.38-.39s-.2-.39-.27-.39a.48.48,0,0,1,.16-.33c.15-.18.2-.31.16-.39a.15.15,0,0,0,.22-.11,16,16,0,0,0-.22-4.31l-.11-.11q-1.31.22-2.62.55-.49.17-1.09,1.38v.06a3.76,3.76,0,0,0-.33,1.21c-.07.52-.15,1-.22,1.44a.7.7,0,0,1-.22.5q-.33-.11-.33-.61v-.44q0-.66-1-.88-.33-.05-.33-.44a3.89,3.89,0,0,1,.27-1.1q.11-.28.16-.44a2.36,2.36,0,0,0,.22-.66.19.19,0,0,0-.22-.22.88.88,0,0,0-.38.11,1.1,1.1,0,0,1-.49,0c-.15,0-.22,0-.22-.11a3,3,0,0,1,.33-1.1,5.18,5.18,0,0,1,.49-.72l.27-.39q.11-.11.38-.44a9.62,9.62,0,0,1,1.7-1.66.16.16,0,0,0,.11-.06,1.71,1.71,0,0,1,.88-.39q.49.28-.22.88a1.85,1.85,0,0,0-1.09.22,7.09,7.09,0,0,0-.93.83l-.16.17-.16.17q-.77.83-.71,1.27c0,.18.18.33.55.44s.51.29.55.44a2.77,2.77,0,0,1-.44,1.27,2.58,2.58,0,0,0-.33,1,3.61,3.61,0,0,1,1,.77,7.3,7.3,0,0,1,1.31-2.21l.11-.11a.65.65,0,0,0,.33-.55,9.94,9.94,0,0,1,3.28-1.44c.11,0,.15-.15.11-.44,0,0,.05-.06.16-.06a.22.22,0,0,0,.16-.06q.44-.05.77-.88t-.33-1L238.23,4Zm.44,5.74q-.6.77-1.2,1.44-.77.88-1.31.55v-.11l.33-.66a1.37,1.37,0,0,1,.38-.17l.27-.17a7,7,0,0,0,1.09-.66l.44-.33Zm-1.42-.66-.33.11q-.33-.55.44-1,.82-.28.88.44-.05.94-.44,1Q237.47,8.95,237.14,8.95Zm1.64-3.64h-.16q-.38-.05-.38-.33t.55-.66h.05q.71-.22.71.11a.59.59,0,0,0-.11.33l.22.11c0,.18-.15.33-.44.44s-.4.11-.44.22Z" transform="translate(0.05 -0.56)"/><path class="e4f07a69-bedd-4e11-a7c0-0f0c65aeee3e" d="M319.5,3.54a5.15,5.15,0,0,0,1.86-.33,5.6,5.6,0,0,0,2.08-.77q.22-.11.22-.77V1.49A.9.9,0,0,1,324,.78L324,.72a1.22,1.22,0,0,1,.38-.17q.33,0,.11.83c0,.22,0,.35,0,.39s.15.19.33.22.29.11.33.22a.79.79,0,0,1-.11.44,1,1,0,0,1-.55.22h-.22a1.25,1.25,0,0,0-.33.39l-.11.17a8,8,0,0,1-1.26,1.32l-.27.22-.11.11q-.22.28-.44.22l-.44-.11a6.16,6.16,0,0,0-1.53,1.33q-.33.33-.82.94t-.82.94a4.08,4.08,0,0,1-.38.44,3.23,3.23,0,0,0-.38.44q-.33.61-.66.66-.66.33-.66-.11a1.48,1.48,0,0,1,.27-.39,1.29,1.29,0,0,1,.16-.28,2.26,2.26,0,0,1,.44-.33l.11.11a4.11,4.11,0,0,0,1.15-1.16l.16-.17q.71-.83,1.42-1.77a2.2,2.2,0,0,1,.27-.33q1-1.32,1.8-1.32a.59.59,0,0,1,.44.55l.11-.11a9.35,9.35,0,0,0,.88-1.44h-.44a5.94,5.94,0,0,0-3.17,1.21,2.11,2.11,0,0,1,.11.66c0,.15,0,.22-.11.22a.46.46,0,0,1-.38-.28.42.42,0,0,1-.05-.17.83.83,0,0,0-.44-.17.15.15,0,0,1-.11-.06q-.55-.28-.22-.88A.79.79,0,0,0,319,3a3.76,3.76,0,0,1,.33-1.21,1,1,0,0,1,.55-.55q.33.06.44.55c0,.19-.09.26-.27.22h-.16a1.8,1.8,0,0,0-.44.55Q319.06,3.54,319.5,3.54Zm2.84,3.31V6.74L322,6.57q-.44-.11-.49-.39c0-.22.22-.37.55-.44a.76.76,0,0,1,.49.28.22.22,0,0,0,.16.06,9,9,0,0,0,3.06,1.21.31.31,0,0,0,.22.06q1.31.22,1.42.72-.22.5-1,.33A14.37,14.37,0,0,1,322.67,7a3.58,3.58,0,0,1,.22,1.21,3.84,3.84,0,0,1,1.2.28.48.48,0,0,0,.22.06.71.71,0,0,1-.66.77.89.89,0,0,1-.27.06q-.38-.05-.38.17v.44a4,4,0,0,1-.66,2,2.46,2.46,0,0,1-1.64,1,.63.63,0,0,1-.22-.33v-.11a4.08,4.08,0,0,0-.44-.72,2.43,2.43,0,0,1-2,.94.51.51,0,0,1,.05-.72c.07-.07.13-.11.16-.11a.32.32,0,0,0,.05-.22.73.73,0,0,1,.27-.33l.44-.11h.88a1.44,1.44,0,0,0,.55-.11l-.33.33a1.13,1.13,0,0,0,.77.5l-.22-.17a1.31,1.31,0,0,0,.77.28c.22,0,.44-.31.66-.83a1.69,1.69,0,0,0-.22-1.66,15.23,15.23,0,0,1-1.75.44q-1.42.39-1.42-.55-.05-.61,1.31-.88a2.85,2.85,0,0,0,1.42-.33.22.22,0,0,0,.11-.22V7.62Q321.63,7.07,322.34,6.85Zm1.09,4.53A1.38,1.38,0,0,1,324,11q-.16-.5.55-.55.38.06.44.55t-.33.55a.16.16,0,0,1-.11.06q-.33.22-.33.33a.53.53,0,0,1-.33-.22C323.73,11.51,323.58,11.38,323.43,11.38Z" transform="translate(0.05 -0.56)"/><path class="e4f07a69-bedd-4e11-a7c0-0f0c65aeee3e" d="M443.42,8a.31.31,0,0,1-.33-.11c0-.11-.09-.18-.27-.22a.6.6,0,0,1-.16-.11.64.64,0,0,1-.44-.66q.11-.44.88-.44a1,1,0,0,1,.88,1Q444,8,443.42,8Zm-.55,2a1.25,1.25,0,0,1,.38.11.42.42,0,0,0,.38.11c.07,0,.16-.11.27-.33a.16.16,0,0,1,.05-.11,2.66,2.66,0,0,1,1.2-1.1,3.44,3.44,0,0,0-1.09,2.21.48.48,0,0,0,.05.22.93.93,0,0,1,.05.22q-.16.94-.87.66a2,2,0,0,1-.6-.94.89.89,0,0,1-.05-.28,0,0,0,0,1-.05-.06.25.25,0,0,1-.05-.28Q442.54,10,442.87,9.94Zm1-5a.8.8,0,0,1-.33-1.1,1,1,0,0,1,1.09-.22,1.43,1.43,0,0,1,.66,1q-.11.39-.71.55c-.33.07-.53.18-.6.33s-.26,0-.22-.22A.6.6,0,0,0,443.86,5Zm2.73.66q0-.39.88-.88A11.56,11.56,0,0,1,449,4.42a1.8,1.8,0,0,0,.88-.11l.22-.06a.48.48,0,0,0,.22-.06q.55.06.66.77a3.79,3.79,0,0,1-.44,1.55,10.58,10.58,0,0,1-1.42,2.1v.11a7.71,7.71,0,0,0,2.08,1,1.26,1.26,0,0,0,.49.17q.55.17.82.28a1.91,1.91,0,0,1,.77.77q-1,.06-1.09.55a11.17,11.17,0,0,1-4-2.1,3.39,3.39,0,0,0-.6.39l-.71.39a5.39,5.39,0,0,1-1.15.44,5.31,5.31,0,0,0-1.26.44l-.11-.11.11-.11,3-1.88q-.16-.72-1.64-1.44-.06-.66.77-.77.33,0,1,.66a.92.92,0,0,0,.27.28q.44.55.71.5t1.09-1.44a2.35,2.35,0,0,0,.44-1.1q0-.28-.77-.11h-.11l-.38.17a2.76,2.76,0,0,1-1.26.28,1,1,0,0,0-.38-.06C446.79,5.91,446.63,5.82,446.59,5.64Z" transform="translate(0.05 -0.56)"/><path class="e4f07a69-bedd-4e11-a7c0-0f0c65aeee3e" d="M533.11,8.51a4.56,4.56,0,0,1,.66-2q.49-.83,1.09-1.66a16.87,16.87,0,0,1,2-2q1-.83,1.42-.11t-.33.88q-.77-.33-2,.88l-.11.11a8.12,8.12,0,0,0-1.53,2.21,1.35,1.35,0,0,0,.55-.22,2.39,2.39,0,0,1,.44-.22q.66.11.77.44a.63.63,0,0,1-.27.5q-.16.11-.16.17a1.15,1.15,0,0,0-.22.66V8.4a4.59,4.59,0,0,0-.11,1v.55a1.88,1.88,0,0,0,.27.88.67.67,0,0,1,.16.11,2.67,2.67,0,0,1,.33.55.22.22,0,0,1-.11.22l.11.22c-.15,0-.22.06-.22.17a1.05,1.05,0,0,1-.55-.17,6.75,6.75,0,0,1-.55-4.2.64.64,0,0,0-.16.11,4.51,4.51,0,0,0-1.26.88C533.14,8.76,533.07,8.69,533.11,8.51Zm7.44-3.42a.48.48,0,0,1-.16.33.39.39,0,0,0-.05.33,5.32,5.32,0,0,0,.88-1.55,1.55,1.55,0,0,1,.11-.33,2.37,2.37,0,0,1,.44-.77q.76-.33,1,.33a4.46,4.46,0,0,1-.38,1.1l-.05.11a14.08,14.08,0,0,1-1.86,2.76.62.62,0,0,1-.22.22,1.15,1.15,0,0,0-.33.55,6.25,6.25,0,0,0-.11,1.1,1.36,1.36,0,0,0,.33,1q1.31,1.16,3.06-.55A3.56,3.56,0,0,1,543,7.9a1.22,1.22,0,0,1,.05-.39.55.55,0,0,0,.22.55l.11-.11q.27.44.44.11a1.71,1.71,0,0,0,.27.22h.16v.88a2.61,2.61,0,0,1-1.53,2,3.53,3.53,0,0,1-2,.77,2.41,2.41,0,0,1-1.2-.44,1.57,1.57,0,0,1-.87-1.32V9.5a.32.32,0,0,0-.11-.22,3.21,3.21,0,0,1-1,.39,5.76,5.76,0,0,0-.77.17.22.22,0,0,1-.11-.22,5.35,5.35,0,0,1,.44-2.1v.22q.38-.11.71-.83a2.62,2.62,0,0,1,.16-.28q.05-.11.27-.44.82-1.54,1.59-1.55Q540.49,4.7,540.54,5.08ZM537.7,8.73q.27.06.55-.33a1.23,1.23,0,0,1,.38-.44,2.19,2.19,0,0,0,.49-.66,5.88,5.88,0,0,0,.11-1.38V5.52a3.61,3.61,0,0,0-1.09,1.21,2.8,2.8,0,0,0-.55,1.55A.46.46,0,0,0,537.7,8.73Z" transform="translate(0.05 -0.56)"/><path class="e4f07a69-bedd-4e11-a7c0-0f0c65aeee3e" d="M620.61,7a2.45,2.45,0,0,1,.44-.72l.33-.5a3.79,3.79,0,0,1,.44-.5,3.19,3.19,0,0,0,.33-.28,6.24,6.24,0,0,0,.71-.72,4.78,4.78,0,0,1,1.7-1.38.71.71,0,0,1,.55.55,5.61,5.61,0,0,1-.44.77c0,.11-.15.15-.33.11s-.42-.07-.71.11h-.05l-.44.33a5.25,5.25,0,0,0-.66.55,4.21,4.21,0,0,0-.87,1.44.42.42,0,0,0,.38.17,1,1,0,0,1,.38.06,1.07,1.07,0,0,1,.33,1.33,2.23,2.23,0,0,1-.27.33,1.86,1.86,0,0,0-.6,1.1q.93.11,1.2,1.33a1.34,1.34,0,0,0,.27-.61,1.22,1.22,0,0,1,.16-.39,8.35,8.35,0,0,1,.82-1.1,11.7,11.7,0,0,0,.82-1V7.29A4.26,4.26,0,0,1,626,4.64q.49-.28.77.33a.59.59,0,0,0-.11.33,1.2,1.2,0,0,0,.44-.5,1.71,1.71,0,0,1,.44-.61l.49-.28a4.73,4.73,0,0,0,.49-.28,1.13,1.13,0,0,1,1.53.77V5a3.6,3.6,0,0,0,.11.61V5.8c0,.22.07.46.11.72V8.06a4.22,4.22,0,0,1-.44,1.55l-.22.66.11.11.55-.11q.55.77-.33,1.1-1.09.28-2.19.44a13.72,13.72,0,0,0-2.08.39q-1-.06-1.09-.39t.82-.94a2.14,2.14,0,0,0,.38-.28l.11-.11a3.91,3.91,0,0,1-.66-1.6,6.36,6.36,0,0,0-.11-.72,1.78,1.78,0,0,0-.22.28,10.72,10.72,0,0,0-1.53,2.48,1.68,1.68,0,0,0-.11.33q-.27.83-.66.94c-.22,0-.27-.31-.16-.83a1.53,1.53,0,0,0,.05-.33q-.16-.72-1-.44c-.26,0-.4-.22-.44-.55a1.9,1.9,0,0,1,.33-.88l.11-.11s.05-.11.16-.22a1.77,1.77,0,0,0,.49-1,.19.19,0,0,0-.22-.22.88.88,0,0,0-.38.11h-.05a1.44,1.44,0,0,1-.55.11A1.48,1.48,0,0,1,620.61,7Zm8.31,3.09a4.75,4.75,0,0,0,.66-2.65V6.85a6.3,6.3,0,0,0-.22-1.33q-.27-.66-.66-.66-1.2,0-2.3,1.77h-.11a.9.9,0,0,1,.05-.28,1.69,1.69,0,0,0,.16-.61c-.15,0-.27.17-.38.5a.42.42,0,0,0-.05.17q-.06.22-.16.55a4.33,4.33,0,0,0-.16.66l.44-.55.11.11q1-.61,1.31,0a.43.43,0,0,0-.11.39c.07.07.11.13.11.17a.65.65,0,0,1-.44.44.5.5,0,0,0,.33.44.55.55,0,0,0,.22.11.8.8,0,0,1,.11.44,4.05,4.05,0,0,1-1.31,1.38l-.55.39V11a8.19,8.19,0,0,0,2-.33c.07,0,.09-.07.05-.22a.49.49,0,0,1,.05-.22l.05-.06c.15-.15.2-.28.16-.39a.67.67,0,0,1,.33.17A.38.38,0,0,0,628.92,10.05Zm-1.53-.88q-.93.33-1.09-.22a.9.9,0,0,1,.05-.28,1.69,1.69,0,0,0,.16-.61q-.44.11-.44.33v.55a4.59,4.59,0,0,0,.11,1,.85.85,0,0,1-.22.44A1.73,1.73,0,0,0,627.39,9.17Z" transform="translate(0.05 -0.56)"/><polyline class="e4f07a69-bedd-4e11-a7c0-0f0c65aeee3e" points="756.36 99.01 760.05 100.07 762.86 100.63 766.71 100.94 771.11 101.19"/><polyline class="e4f07a69-bedd-4e11-a7c0-0f0c65aeee3e" points="788.63 87.88 788.36 89.63 787.67 91.79 786.96 93.6 786.37 94.58"/><polyline class="e4f07a69-bedd-4e11-a7c0-0f0c65aeee3e" points="773.9 101.07 776.32 100.66 779.07 100.05 776.78 99.55 776.09 100.31"/><polyline class="e4f07a69-bedd-4e11-a7c0-0f0c65aeee3e" points="788.38 89.54 788.17 90.51 787.38 92.53 787.05 93.37"/><polyline class="e4f07a69-bedd-4e11-a7c0-0f0c65aeee3e" points="748.81 89.78 749.24 91.8 749.9 93.42 751.72 91.9"/><path class="e4f07a69-bedd-4e11-a7c0-0f0c65aeee3e" d="M761.95,97.42" transform="translate(0.05 -0.56)"/><polyline class="e4f07a69-bedd-4e11-a7c0-0f0c65aeee3e" points="788.63 87.48 788.58 88.54 788.38 89.74 788.08 90.74"/><polyline class="e4f07a69-bedd-4e11-a7c0-0f0c65aeee3e" points="755.7 90.69 755.92 91.34 755.14 91.04"/><polyline class="e4f07a69-bedd-4e11-a7c0-0f0c65aeee3e" points="754.77 88.59 755.18 88.42 755.82 91.07 754.22 91.6"/><polyline class="e4f07a69-bedd-4e11-a7c0-0f0c65aeee3e" points="788.61 87.19 788.38 85.55 788 84.16 787.13 84.69"/><path class="e4f07a69-bedd-4e11-a7c0-0f0c65aeee3e" d="M423.79,185.58" transform="translate(0.05 -0.56)"/><path class="e4f07a69-bedd-4e11-a7c0-0f0c65aeee3e" d="M418.53,192.5" transform="translate(0.05 -0.56)"/><path class="e4f07a69-bedd-4e11-a7c0-0f0c65aeee3e" d="M358.29,154.54" transform="translate(0.05 -0.56)"/><path class="e4f07a69-bedd-4e11-a7c0-0f0c65aeee3e" d="M179.4,155.32c-1.15.67-1.48.74-1.55.66s.73-.71.67-1.46-.94-.81-1.12-1.64c-.14-.65.16-1.68.91-1.82a1.79,1.79,0,0,1,1.56.37,1.92,1.92,0,0,1,.55,1.38A3.45,3.45,0,0,1,179.4,155.32Z" transform="translate(0.05 -0.56)"/><path class="e4f07a69-bedd-4e11-a7c0-0f0c65aeee3e" d="M179.56,154.54" transform="translate(0.05 -0.56)"/><path class="e4f07a69-bedd-4e11-a7c0-0f0c65aeee3e" d="M373.75,158.13" transform="translate(0.05 -0.56)"/></svg>