<svg xmlns="http://www.w3.org/2000/svg" width="803" height="194" viewBox="0 0 803 194"><defs><style>.cls-1{fill:#fff;fill-rule:evenodd}</style></defs><path id="logo-nora2-w" class="cls-1" d="M696.351 473.978v-.43a.42.42 0 0 0 .455-.43v-10.859a.42.42 0 0 0-.455-.432v-.427h4.081v.43a.205.205 0 0 0-.191.24 1.292 1.292 0 0 0 .477.669l6.849 7.128v-7.6c0-.289-.215-.432-.621-.432v-.435h3.6v.43a.42.42 0 0 0-.454.432v10.859a.42.42 0 0 0 .454.43v.43h-3.866v-.43a.262.262 0 0 0 .312-.215 1.046 1.046 0 0 0-.383-.55l-7.278-7.606v7.941a.455.455 0 0 0 .549.43v.43h-3.532zm35.518-6.29c0 4.376-4.224 6.433-7.707 6.433s-7.707-2.057-7.707-6.433 4.223-6.435 7.707-6.435 7.707 2.058 7.707 6.435zm-12.791 0c0 2.7 2.65 4.232 5.084 4.232s5.082-1.531 5.082-4.232-2.649-4.234-5.082-4.234-5.084 1.531-5.084 4.234zm18.793-6.291h8.159c3.054 0 5.059 1 5.059 3.732 0 2.081-1.336 3.156-3.437 3.54l3.174 4.544a.9.9 0 0 0 .811.335v.43h-4.461v-.43a.473.473 0 0 0 .524-.264 1.565 1.565 0 0 0-.381-.693l-2.625-3.732h-3.412v4.259c0 .286.167.43.716.43v.43h-4.127v-.43c.475 0 .69-.144.69-.43v-10.859c0-.289-.215-.432-.69-.432v-.427zm3.411 5.6h4.127c2.291 0 2.96-.766 2.96-1.771s-.669-1.77-2.96-1.77h-4.127V467zm16.187 6.983v-.43a1.294 1.294 0 0 0 .836-.909l4.414-9.305a3.034 3.034 0 0 0 .43-1.029.541.541 0 0 0-.526-.478v-.429h4.034v.43a.516.516 0 0 0-.5.478 2.058 2.058 0 0 0 .335.886l4.964 9.735a1.3 1.3 0 0 0 .787.622v.43h-4.2v-.43a.382.382 0 0 0 .381-.287 1.369 1.369 0 0 0-.191-.622l-.907-1.771H761.5l-.859 1.7a2.229 2.229 0 0 0-.237.717.409.409 0 0 0 .452.264v.43h-3.389zm4.75-4.879h4.247l-2-4.449zm16.523 7.725c.978-.263 2.577-1.554 2.434-2.679a.666.666 0 0 0-.669-.215 1.436 1.436 0 0 1-1.479-1.506 1.686 1.686 0 0 1 1.6-1.7c1.264 0 1.933 1.052 1.933 2.393a4.957 4.957 0 0 1-3.818 4.472v-.766zm23.324-2.846H797.7v-.43c.621 0 .884-.144.884-.43v-10.861c0-.289-.358-.432-.884-.432v-.427h8.4c3.054 0 4.916 1 4.916 3.732s-1.862 3.73-4.916 3.73h-4.8v4.259c0 .286.215.43.764.43v.43zm-.764-7.319h5.082c1.05 0 1.91-.335 1.91-1.53s-.86-1.531-1.91-1.531H801.3v3.061zm16.476-5.262h8.159c3.054 0 5.059 1 5.059 3.732 0 2.081-1.336 3.156-3.437 3.54l3.174 4.544a.9.9 0 0 0 .811.335v.43h-4.461v-.43a.473.473 0 0 0 .524-.264 1.565 1.565 0 0 0-.381-.693l-2.625-3.732h-3.412v4.259c0 .286.167.43.716.43v.43h-4.127v-.43c.475 0 .69-.144.69-.43v-10.861c0-.289-.215-.432-.69-.432v-.427zm3.411 5.6h4.127c2.291 0 2.96-.766 2.96-1.771s-.669-1.77-2.96-1.77h-4.127V467zm18.457 6.983v-.43c.4 0 .618-.144.618-.43v-10.863c0-.289-.214-.432-.618-.432v-.427h3.96v.43c-.4 0-.62.143-.62.432v10.859c0 .286.215.43.62.43v.43h-3.96zm11.231 0v-.43a.42.42 0 0 0 .454-.43v-10.863a.42.42 0 0 0-.454-.432v-.427h4.08v.43a.205.205 0 0 0-.191.24 1.292 1.292 0 0 0 .477.669l6.849 7.128v-7.6c0-.289-.215-.432-.621-.432v-.435h3.6v.43a.42.42 0 0 0-.455.432v10.859a.42.42 0 0 0 .455.43v.43h-3.866v-.43a.262.262 0 0 0 .311-.215 1.046 1.046 0 0 0-.383-.55l-7.278-7.606v7.941a.455.455 0 0 0 .549.43v.43h-3.531zm35.372-1.914l-.192.191c-.094 0-.166-.023-.26-.023-.36 0-3.031 1.889-6.109 1.889-4.034 0-7.635-2.2-7.635-6.433s3.6-6.435 7.635-6.435a13.919 13.919 0 0 1 3.936.6c.978.287 1.575.6 1.695.6a.612.612 0 0 0 .334-.31l.358.287-1.861 2.894-.24-.168a1.613 1.613 0 0 0-.047-.31c-.143-.719-2.6-1.531-4.175-1.531-2.7 0-5.012 1.554-5.012 4.306s2.316 4.3 5.012 4.3c2 0 4.748-1.027 4.748-1.912a.608.608 0 0 0-.1-.287l.332-.192zm19.983-8.084h-.432c0-.334-.237-.526-.906-.526h-7.73v2.965h4.675c.621 0 1-.095 1-.812h.429v3.73h-.429c0-.717-.383-.86-1-.86h-4.675v3.3h7.969a.691.691 0 0 0 .81-.622h.431v3.35h-.431c0-.479-.332-.527-.81-.527h-11.117v-.43a.413.413 0 0 0 .429-.43v-10.863a.413.413 0 0 0-.429-.432v-.427H904.9c.669 0 .906-.239.906-.574h.431v3.157zm6.741 8.946l1.312-2.895.238.12a.7.7 0 0 0 .1.382c.477.79 2.839 1.531 4.341 1.531 1.05 0 3.843-.262 3.843-1.721 0-2.918-9.688.74-9.688-5.119 0-1.985 1.838-3.971 5.8-3.971 3.315 0 4.914 1.2 5.725 1.2a.626.626 0 0 0 .478-.144l.278.187-1.647 2.99-.238-.1a1.222 1.222 0 0 0-.191-.55c-.5-.742-2.5-1.531-4.342-1.531-1.409 0-3.15.407-3.15 1.459 0 3.036 9.688-.5 9.688 5.238 0 3.3-3.938 4.113-6.514 4.113-3.675 0-4.676-1.195-5.394-1.195a.433.433 0 0 0-.309.192zm18.957 0l1.312-2.895.238.12a.7.7 0 0 0 .1.382c.477.79 2.839 1.531 4.341 1.531 1.05 0 3.843-.262 3.843-1.721 0-2.918-9.688.74-9.688-5.119 0-1.985 1.838-3.971 5.8-3.971 3.315 0 4.914 1.2 5.725 1.2a.626.626 0 0 0 .478-.144l.286.192-1.647 2.99-.238-.1a1.222 1.222 0 0 0-.191-.55c-.5-.742-2.5-1.531-4.342-1.531-1.409 0-3.15.407-3.15 1.459 0 3.036 9.688-.5 9.688 5.238 0 3.3-3.938 4.113-6.514 4.113-3.675 0-4.676-1.195-5.394-1.195a.435.435 0 0 0-.309.192zm18.551 3.9c.978-.263 2.577-1.554 2.434-2.679a.667.667 0 0 0-.669-.215 1.436 1.436 0 0 1-1.479-1.506 1.686 1.686 0 0 1 1.6-1.7c1.264 0 1.933 1.052 1.933 2.393a4.958 4.958 0 0 1-3.818 4.472v-.766zm95.009-2.846v-.43a1.29 1.29 0 0 0 .83-.909l4.42-9.305a3.141 3.141 0 0 0 .43-1.029.545.545 0 0 0-.53-.478v-.433h4.04v.43a.52.52 0 0 0-.51.478 2.016 2.016 0 0 0 .34.886l4.96 9.735a1.309 1.309 0 0 0 .79.622v.43h-4.2v-.43a.379.379 0 0 0 .38-.287 1.4 1.4 0 0 0-.19-.622l-.91-1.771h-5.82l-.86 1.7a2.309 2.309 0 0 0-.24.717.418.418 0 0 0 .46.264v.43h-3.39zm4.75-4.879h4.24l-2-4.449zm15.83 4.879v-.43a.416.416 0 0 0 .45-.43v-10.865a.416.416 0 0 0-.45-.432v-.427h4.08v.43a.2.2 0 0 0-.19.24 1.287 1.287 0 0 0 .47.669l6.85 7.128v-7.6c0-.289-.21-.432-.62-.432v-.435h3.61v.43a.424.424 0 0 0-.46.432v10.859a.424.424 0 0 0 .46.43v.43h-3.87v-.43a.259.259 0 0 0 .31-.215 1.053 1.053 0 0 0-.38-.55l-7.28-7.606v7.941a.453.453 0 0 0 .55.43v.43h-3.53zm20.13-12.584h7.92c3.48 0 6.2 2.009 6.2 6.291s-2.72 6.29-6.2 6.29h-7.92v-.43a.449.449 0 0 0 .54-.43v-10.862a.448.448 0 0 0-.54-.432v-.427zm3.27 10.523h3.69c3.01 0 4.44-.909 4.44-4.232s-1.43-4.234-4.44-4.234h-3.69v8.466zm39.8.144l-.19.191c-.1 0-.17-.023-.26-.023-.36 0-3.03 1.889-6.11 1.889-4.03 0-7.64-2.2-7.64-6.433s3.61-6.435 7.64-6.435a13.956 13.956 0 0 1 3.94.6c.97.287 1.57.6 1.69.6a.6.6 0 0 0 .33-.31l.36.287-1.86 2.894-.24-.168a1.924 1.924 0 0 0-.04-.31c-.15-.719-2.61-1.531-4.18-1.531-2.7 0-5.01 1.554-5.01 4.306s2.31 4.3 5.01 4.3c2 0 4.75-1.027 4.75-1.912a.572.572 0 0 0-.1-.287l.33-.192zm7.12-10.667h8.16c3.06 0 5.06 1 5.06 3.732 0 2.081-1.33 3.156-3.44 3.54l3.18 4.544a.893.893 0 0 0 .81.335v.43h-4.46v-.43a.464.464 0 0 0 .52-.264 1.538 1.538 0 0 0-.38-.693l-2.62-3.732h-3.41v4.259c0 .286.16.43.71.43v.43h-4.13v-.43c.48 0 .69-.144.69-.43v-10.862c0-.289-.21-.432-.69-.432v-.427zm3.42 5.6h4.12c2.29 0 2.96-.766 2.96-1.771s-.67-1.77-2.96-1.77h-4.12V467zm16.71-5.6h4.96v.43c-.29 0-.6.048-.6.36 0 .382 2.1 3.18 2.94 4.521l2.79-3.852a1.832 1.832 0 0 0 .43-.766c0-.215-.38-.263-.64-.263v-.43h4.17v.43c-.55 0-.79.143-1.57 1.269l-4.06 5.763v4.259a.453.453 0 0 0 .55.43v.43h-3.77v-.43a.433.433 0 0 0 .5-.43v-4.259l-4.6-6.457a1.671 1.671 0 0 0-1.1-.575v-.43zm19.01 12.581v-.43c.4 0 .61-.144.61-.43v-10.862c0-.289-.21-.432-.61-.432v-.427h3.96v.43c-.41 0-.62.143-.62.432v10.859c0 .286.21.43.62.43v.43h-3.96zm11.27 0v-.43a.424.424 0 0 0 .46-.43v-10.862a.424.424 0 0 0-.46-.432v-.427h4.08v.43a.207.207 0 0 0-.19.24 1.266 1.266 0 0 0 .48.669l6.85 7.128v-7.6c0-.289-.22-.432-.62-.432v-.435h3.6v.43a.416.416 0 0 0-.45.432v10.859a.416.416 0 0 0 .45.43v.43h-3.87v-.43a.27.27 0 0 0 .32-.215 1.031 1.031 0 0 0-.39-.55l-7.27-7.606v7.941a.449.449 0 0 0 .54.43v.43h-3.53zm34.04-11.862l-1.41 3.156-.48-.143a.587.587 0 0 0 .05-.287c0-.981-2.67-1.531-4.56-1.531-2.36 0-4.81 1.267-4.81 4.424s2.45 4.425 4.81 4.425a13.009 13.009 0 0 0 4.3-.716v-2.058h-3.05c-.43 0-.65.143-.72.765h-.43v-3.064h.43a.593.593 0 0 0 .72.621h5.96v.431c-.62.1-.71.168-.71.573v2.7a.548.548 0 0 0 .47.479v.384a12.043 12.043 0 0 1-6.97 1.84c-4.43 0-7.44-2.439-7.44-6.433s3.01-6.435 7.44-6.435a16.036 16.036 0 0 1 3.7.479c1.01.238 1.7.478 1.84.478a.9.9 0 0 0 .57-.263zm30.17 9.948l-.2.191c-.09 0-.16-.023-.26-.023-.36 0-3.03 1.889-6.1 1.889-4.04 0-7.64-2.2-7.64-6.433s3.6-6.435 7.64-6.435a13.94 13.94 0 0 1 3.93.6c.98.287 1.58.6 1.7.6a.6.6 0 0 0 .33-.31l.36.287-1.86 2.894-.24-.168a2.039 2.039 0 0 0-.05-.31c-.14-.719-2.6-1.531-4.17-1.531-2.7 0-5.02 1.554-5.02 4.306s2.32 4.3 5.02 4.3c2 0 4.74-1.027 4.74-1.912a.677.677 0 0 0-.09-.287l.33-.192zm4.64 1.914v-.43a1.29 1.29 0 0 0 .83-.909l4.42-9.305a3.141 3.141 0 0 0 .43-1.029.545.545 0 0 0-.53-.478v-.43h4.03v.43a.518.518 0 0 0-.5.478 2.016 2.016 0 0 0 .34.886l4.96 9.735a1.309 1.309 0 0 0 .79.622v.43h-4.2v-.43a.379.379 0 0 0 .38-.287 1.4 1.4 0 0 0-.19-.622l-.91-1.771h-5.82l-.86 1.7a2.309 2.309 0 0 0-.24.717.418.418 0 0 0 .46.264v.43h-3.39zm4.75-4.879h4.24l-2-4.449zm22.1 4.019a.449.449 0 0 0 .53.43v.43h-3.68v-.43a.411.411 0 0 0 .43-.43V463.6h-3.93a.566.566 0 0 0-.63.573h-.43v-3.348h.43a.567.567 0 0 0 .63.574h10.59a.563.563 0 0 0 .62-.574h.43v3.348h-.43a.563.563 0 0 0-.62-.573h-3.94v9.52zm13.49-2.393a1.7 1.7 0 1 1-1.69 1.7 1.7 1.7 0 0 1 1.69-1.703zm-261.34 12.644s1.04 5.767.17 7.544a3.032 3.032 0 0 1-2.99 1.661c-1 .053-2-.545-2.94.649-1.12 1.432.47 5.616.99 7.4 1.02 3.453 2.24 7.382-.02 10.613-1.68 2.39-4.45 2.453-7.05 2.67a25.906 25.906 0 0 1-4.61 0c-3.07-.293-6.54-1.3-8.16-4.168-3.34-5.636 1.6-13.954 2.94-15.926 1.31-1.916 2.99-3.634 4.28-5.5 1.54-2.206 1.97-5.064 3.63-7.172a10.138 10.138 0 0 1 2.44-2.1 17.244 17.244 0 0 1 .91-3.267c.52-1.092 1.28-.891 1.73.076s1.57 2.893 1.57 2.893l2.03-1.013s.97-.127.77.635l-.2.762c.96-.442 4.1-2.4 4.96-1.342.4.5.21 1.734.13 2.327-.09.755-.58 3.255-.58 3.255zm-297.158-85.815c0 9.116 8.332 15.991 19.38 15.991a31.309 31.309 0 0 0 10.406-1.87l.13-.045.747-5.151-.371.157a29.788 29.788 0 0 1-11.471 2.481c-8.8 0-15.184-5.026-15.184-11.949 0-6.537 4.308-16.264 24.833-25.482l.192-.086-.992-2.732-.22.093a63.86 63.86 0 0 0-10.8 5.818 33.307 33.307 0 0 0-11.273-15.544l-.127-.085-1.869 1.271.208.2a38.644 38.644 0 0 1 9.388 16.725c-8.369 6.144-12.977 13.318-12.977 20.208zm199.886 0c0 9.116 8.331 15.991 19.379 15.991a31.3 31.3 0 0 0 10.406-1.87l.13-.045.748-5.151-.372.157a29.786 29.786 0 0 1-11.469 2.481c-8.941 0-15.185-4.914-15.185-11.949 0-6.537 4.309-16.264 24.831-25.482l.194-.086-.993-2.732-.219.093a63.913 63.913 0 0 0-10.8 5.818 33.307 33.307 0 0 0-11.273-15.544l-.127-.085-1.869 1.271.208.2a38.633 38.633 0 0 1 9.388 16.725c-8.369 6.144-12.977 13.318-12.977 20.208zM655.5 354.574l-8.284-11.786-1.469 1.607a12.329 12.329 0 0 1 1.87 9.242s-4.543 32.344-49.621 61.044c.994.769 2.323 1.837 2.323 1.837s45.559-25.649 55.181-61.944zm19.963-1.8v.008h43.656l-.012.012h11.362l-5.681-5.695-2.034 2.039h-46.227c-2.312-.075-5-.44-5.99-2.123l-.935.937 4.142 4.822h1.717zm-1.982 15.262v.014h47.166c-1.259 9.485-8.448 35.055-49.169 46.394.994.768 2.323 1.836 2.323 1.836s47.609-9.856 54.02-47.4l2.648-2.654-5.681-5.695-3.863 3.873h-45.25c-2.341-.065-5.118-.413-6.124-2.129l-.935.937 4.142 4.822h.723zm190.766-6.078v-.011h17.178l-7.835 29.9 5.275 1.389 1.328-5.067a51.036 51.036 0 0 1 11.492 4.155c-6.931 8.316-17.017 16.521-31.676 22.154.994.769 2.323 1.837 2.323 1.837a78.546 78.546 0 0 0 34.187-21.3 59.9 59.9 0 0 1 20.326 21.167h8.284s-6-15.233-25.233-25.1a67.4 67.4 0 0 0 13.328-29.14h20.456l-5.68-5.696-2.05 2.055h-37.93l4.477-17.085 1.182-4.2-8.818-5.759-1.2 1.607s3.474 1.339 3.741 4.152a8.467 8.467 0 0 1-.207 2.919l-.078.3c-.048.182-.1.364-.157.555h.011l-4.593 17.51h-20.986c-2.208-.108-4.638-.523-5.565-2.1l-.935.937 4.142 4.822h5.211zm42.125-.011a67.632 67.632 0 0 1-11.821 26.692 74.793 74.793 0 0 0-13.435-3.991l5.948-22.7h19.306zm-53.524 54.3l-5.681-5.695-2.061 2.067h-29.517V401l25.065-.021-5.681-5.695-2.066 2.072h-17.318v-8.816h30.944l-5.681-5.694-2.052 2.054h-50.336v-.033c-2.349 0-7.043.2-8.418-2.142l-.935.938 4.142 4.877h26.428v8.811h-17.765c-2.232-.1-4.717-.5-5.657-2.108l-.935.937 4.142 4.82h20.215v11.624H781.2c-2.3-.078-4.971-.447-5.953-2.121l-.935.937 4.142 4.822zm-21.022-50.82l-5.681-5.695-2.05 2.055h-19.764v-.019c-2.349 0-7.38.2-8.755-2.142l-.935.938 4.142 4.863h33.041zm-53.033-16.174c11.962 11.9 11.447 29.907 11.447 29.907h46.556s.835-20.887 12.634-29.792a1.073 1.073 0 0 0 .341-1.5 1.174 1.174 0 0 0-1.454-.5 43.69 43.69 0 0 1-9.444 2.258 30.4 30.4 0 0 1-9.589-.209 17.391 17.391 0 0 1-8.335-3.979 16.6 16.6 0 0 1-3.9-5.214l.918-3.257-8.818-5.759-1.2 1.607s3.473 1.34 3.741 4.152c0 0-3.163 8.162-10.89 11.146-8.373 3.234-17.932.268-20.851-.955l-.079-.033a1.2 1.2 0 0 0-1.079 2.128zm36.436-6.773a18.574 18.574 0 0 0 3.992 4.929 19.984 19.984 0 0 0 9.584 4.48 32.883 32.883 0 0 0 10.375.131c1.466-.2 2.906-.48 4.335-.811-9.1 9.53-11.909 24.307-11.909 24.307h-36.231s-.317-10.051-10.769-23.841c20.975 6.598 30.148-8.517 30.621-9.195zm-4.077-16.7a2.12 2.12 0 0 1-2.13 1.792.963.963 0 0 1-1.05-1.024 2.344 2.344 0 0 1 .491-1.339.057.057 0 0 1 .02.06 1.7 1.7 0 0 1-.079.393 1.522 1.522 0 0 0-.059.414.645.645 0 0 0 .687.727 1.339 1.339 0 0 0 1.384-1.13.952.952 0 0 0-1.1-.788 3.828 3.828 0 0 0-2.2 1.063c.01.364.01.718.019 1.032v.09c0 .433-.079.826-.452.826a.478.478 0 0 1-.373-.276 1.47 1.47 0 0 0-.794-.482 1.647 1.647 0 0 1-.973.384.3.3 0 0 1-.352-.295.859.859 0 0 1 .511-.7.513.513 0 0 1 .137.04.356.356 0 0 0 .118.029 5.065 5.065 0 0 0 1.649-.876c0-.246.009-.491.009-.728 0-.335-.009-.669-.019-.993a2.729 2.729 0 0 1-1.109.284.775.775 0 0 1-.934-.777c0-.088.021-.118.06-.118a.7.7 0 0 1 .166.059 2.047 2.047 0 0 0 .688.118 2.411 2.411 0 0 0 1.088-.275c-.077-.984-.106-1.368-.5-1.368-.215 0-.3-.029-.3-.1a.6.6 0 0 1 .559-.4.843.843 0 0 1 .806.739 2.444 2.444 0 0 1-.01.255 1.965 1.965 0 0 0 .472.069c.048 0 .1-.009.157-.009h.058a.286.286 0 0 1 .3.314 1.39 1.39 0 0 1-1.021.974c0 .542.02 1.112.029 1.663a4.929 4.929 0 0 1 2.386-.826c1.07-.001 1.659.514 1.659 1.182zm-5.468 1.24a5.079 5.079 0 0 0 .541.05c.255 0 .323-.069.332-.178.022-.206.031-.413.041-.629-.317.268-.63.543-.916.76zm1.415-4.477a2.815 2.815 0 0 0-.01.305v.177c.048-.029.087-.058.128-.079a.219.219 0 0 0 .106-.166.318.318 0 0 0-.223-.234zm4.888.64c0 .3-.216.364-.659.452a2.661 2.661 0 0 0-.775.217.732.732 0 0 1-.246.1.026.026 0 0 1-.029-.029.47.47 0 0 1 .157-.207 1.052 1.052 0 0 0 .3-.571c0-.128-.079-.256-.462-.256a.967.967 0 0 0-.619.217.737.737 0 0 1-.325.187c-.028 0-.038-.009-.038-.03a1.513 1.513 0 0 1 1.423-.914 1.162 1.162 0 0 1 1.271.837zm3.576 5.628a.027.027 0 0 1-.031-.02 1.045 1.045 0 0 1 .385-.275c.912-.532 2.7-2.156 2.7-4.2 0-.905-.364-1.525-.826-1.525a1.066 1.066 0 0 0-.7.384 1.079 1.079 0 0 1-.727.393.872.872 0 0 1-.873-.807.513.513 0 0 1 .236-.481.259.259 0 0 1 .156.206.311.311 0 0 0 .325.168 1.806 1.806 0 0 0 .6-.139 3.213 3.213 0 0 1 1.1-.265 1.9 1.9 0 0 1 1.61 2.116 3.7 3.7 0 0 1-.3 1.407 5.46 5.46 0 0 1-3.657 3.041zm3.122-7.96c0 .206-.207.354-.628.374a4.062 4.062 0 0 0-1.4.354.833.833 0 0 1-.214.069.027.027 0 0 1-.031-.02.426.426 0 0 1 .149-.167c.147-.139.351-.3.46-.4a.189.189 0 0 0 .079-.118.091.091 0 0 0-.079-.078 1.3 1.3 0 0 1-.971-.827c0-.04.02-.049.058-.049a1.1 1.1 0 0 1 .354.127 3.336 3.336 0 0 0 1.11.138c.1 0 .185-.01.274-.01a.741.741 0 0 1 .837.61zm69.624 7.409c-1.03 0-2.188-.581-2.188-2.893 0-1.083.236-2.175.246-3.257a2.058 2.058 0 0 0-.275-1.22.535.535 0 0 1-.137-.255c0-.05.058-.08.176-.08a1.088 1.088 0 0 1 1.2 1.152 1.525 1.525 0 0 1-.021.3 22.237 22.237 0 0 0-.549 3.454 1.659 1.659 0 0 0 1.69 1.968 5.1 5.1 0 0 0 2.864-1.131 1.135 1.135 0 0 1 .364-.217c.01 0 .019 0 .019.02a4.429 4.429 0 0 1-3.391 2.162zm1.661-5.52a.356.356 0 0 1-.334.374.4.4 0 0 1-.3-.168 3.256 3.256 0 0 0-.924-.767.2.2 0 0 1-.127-.108.584.584 0 0 1 .4-.089 1.145 1.145 0 0 1 1.283.761zm1.216-.453a.355.355 0 0 1-.333.375.405.405 0 0 1-.3-.168 3.2 3.2 0 0 0-.922-.767.239.239 0 0 1-.137-.119.61.61 0 0 1 .4-.088 1.175 1.175 0 0 1 1.29.77zm7.169 2.184a1.23 1.23 0 0 1-.58-.117c-.009.108-.019.216-.019.325a4.174 4.174 0 0 0 .048.59 5.782 5.782 0 0 0 .207.767 2.873 2.873 0 0 1 .118.65 1.564 1.564 0 0 1 1.228.974.364.364 0 0 1-.344.374.523.523 0 0 1-.4-.256 2.486 2.486 0 0 0-.571-.531 1.421 1.421 0 0 1-1.324.836 1.038 1.038 0 0 1-1.061-.856c0-.552.8-.728 1.365-.728a4.208 4.208 0 0 1 .5.039 8.207 8.207 0 0 0-.156-1.191 7.439 7.439 0 0 1-.05-.924c0-.267.011-.532.011-.778v-.059c0-.364-.089-.5-.2-.5-.147-.01-.246-.019-.246-.088a.56.56 0 0 1 .491-.344.758.758 0 0 1 .648.59 1.447 1.447 0 0 1-.108.452 2.557 2.557 0 0 0-.068.256c.019 0 .048.01.068.01a1.184 1.184 0 0 0 .363-.079.181.181 0 0 0 .089-.049.552.552 0 0 1 .373-.157.437.437 0 0 1 .5.334.766.766 0 0 1-.884.463zm-1.571 2.362a.778.778 0 0 0-.8.374c0 .178.274.3.686.3a.862.862 0 0 0 .806-.542 2.143 2.143 0 0 0-.694-.129zm362.9 22.55s21.18 30.851 23.37 54.169l6.06-1.936c-2.9-22.262-26.44-53.289-26.44-53.289zm-19.81-5.76l-1.2 1.608s3.77 1.273 3.77 4.7c-.97 21.685-16.14 51.484-24.22 58.492l2.01.96c13.02-10.653 27.81-38.078 28.46-60zm-186.88 16.34a26.8 26.8 0 0 1-.67 3.4H1023.8c-2.35-.064-5.13-.41-6.14-2.129l-.93.938 4.14 4.836h13.45v42.2s-.2 6.83-13.2 4.855l-.8 1.607s19.22 3.545 19.4-6.429h.05v-42.229h11.38a22.228 22.228 0 0 1-7.7 10.4c.96.772 1.34 1.11 1.34 1.11s7-1.684 13.01-12.935zm-52.43 29.954h16.43l-5.68-5.715-2.07 2.067h-8.68v-10.552h14.97v-29.595l3.33-3.339-5.68-5.694-4.36 4.361a19.656 19.656 0 0 0-11.064-3.234 20.364 20.364 0 0 0-11.566 3.36l-7.806-5.1-1.2 1.607s3.474 1.339 3.741 4.152v33.479h14.186v10.555h-9.265c-2.249-.095-4.774-.491-5.723-2.11l-.936.937 4.142 4.821h11.782v16.155l-13.745 3.872c-2.8-.277-4.13-3.764-4.13-3.764l-1.607 1.2 5.716 8.859 38.379-15.494v-1.607l-19.16 5.4V389.92zm0-29.1h7.95l-5.68-5.695-2.05 2.054h-.22V342.09a15.7 15.7 0 0 1 9.51 5.239v24.744h-9.51v-11.255zm-14.186 11.255v-25.941l.023-.1a16.011 16.011 0 0 1 8.71-3.972v15.088c-2.443-.063-5.419-.407-6.429-2.129l-.935.937 4.142 4.864h3.222v11.255h-8.733zm66.956-29.518l-5.68-5.695-3.6 3.6h-16.79c-2.33-.069-5.07-.424-6.07-2.126l-.93.938 4.14 4.821v.012h19.12l.3.306a25.874 25.874 0 0 1-6.4 8.945c-3.68-4.046-9.68-5.984-9.68-5.984l-1.2 1.2s10.06 5.616 9.23 13.417a39.756 39.756 0 0 0 4.4-3.105 9.059 9.059 0 0 0-1.13-3.293c6.676-4.767 14.286-13.035 14.286-13.035zm290.11 30.975l-2.05 2.055h-41.58v-.02c-2.35 0-7.38.2-8.75-2.141l-.94.937 4.14 4.864h54.86zm-134.29-26.636h-8.06v-4.356l-7.99-5.759-1.2 1.607s3.71 1.623 3.71 4.152v4.356h-10.18v-4.356l-8.01-5.759-1.2 1.607s3.48 1.34 3.74 4.152v4.356h-5.55v-.02c-2.35 0-7.05.2-8.42-2.141l-.94.937 4.14 4.868h10.79v11.645h5.45v-11.644h10.18v11.645h5.46v-11.645h15.81l-5.68-5.7zm1.26 14.241l-3.63 3.639h-35.39l-5.17-3.881-1.21 1.608s3.48 1.339 3.74 4.152l.01 42.026h.01l-.01.006c.31.306 7.85 7.581 22.26 7.581 14.44 0 21.38-7.267 21.67-7.576l-.01-.011h.02v-38.451l3.39-3.4zm-36.2 47.063v-39.78h33.04v39.958a30.416 30.416 0 0 1-16.23 4.245 31.963 31.963 0 0 1-16.814-4.42zm-18.35-53.078a21.816 21.816 0 0 0 5.84-8.629l-4.02-9.751-1.9.643a8.912 8.912 0 0 1 .74 5.545 26.8 26.8 0 0 1-3.62 8.162 53.081 53.081 0 0 0-6.86-7.2l-1.87 1.072a64.1 64.1 0 0 1 6.47 9.055 29.166 29.166 0 0 1-14.82 9.111l1.27 1.689a49.068 49.068 0 0 0 15.61-7.115 65.317 65.317 0 0 1 2.63 5.71c.28 2.886.54 16.186-16.64 26.283l1.34 1.071s14.19-5.2 18.37-16.835c3.81 17.836-8.36 37.352-12.89 38.867-4.01 1.34-6.68-3.482-6.68-3.482a14.294 14.294 0 0 1-.8 1.2c1.93 3.884 5.74 5.759 7.48 5.759 10.69 0 19.77-19.085 18.44-39.041-.594-8.807-4.244-16.403-8.094-22.113zm39.83 28.38a4.546 4.546 0 0 1-3.76-3.891l-1.1-8.311-1.11 8.311a4.546 4.546 0 0 1-3.76 3.891l-8.77 1.466 8.48 1.416a4.559 4.559 0 0 1 3.78 4.13l1.38 17.233 1.37-17.233a4.559 4.559 0 0 1 3.78-4.13l8.48-1.416zm202.46-12.83a7.275 7.275 0 0 0-8.7.385 8.266 8.266 0 0 0-3.1 5.815c.51.068.41.042 1.08.1.48-3.643 5.54-6.054 8.47-4.263 3.84 2.342 1.81 8.157-1.84 9.157a14.9 14.9 0 0 1-8.19-.26c-4.8-1.232-18.44-6.644-25.3-13.052 0 0-.1-21.771 0-26.076l-8.62-5.731-1.21 1.607s3.85 1.758 4.11 4.57c.11 1.134.16 2.622.19 4.521v68.777h5.53v-40.66c8.74 4.642 25.33 10.544 31.62 9.624 0 0 5.29-.062 7.87-4.568 1.306-2.297 1.636-7.515-1.914-9.945zm-271.56 12.441l-3.67-5.223c-4.29 6.075-15.03 10.711-22.17 12.05A89.922 89.922 0 0 1 1089.4 375.9h25.5v-.02h2.73v-30.006l3.49-3.5-5.68-5.695s-5.66 5.674-5.78 5.752a35.644 35.644 0 0 0-13.38-3.531v-7.534h-5.45v7.43a37.844 37.844 0 0 0-15.61 3.65l-8.74-5.707-1.2 1.607s3.47 1.339 3.74 4.152v1.886h-.02v62.074c-6.35 2.129-11.36 3.678-11.36 3.678-1.87.651-4.13-3.764-4.13-3.764l-1.61 1.2 5.71 8.858s32.44-13.551 37.65-18.976c-.07-.569-.2-1.272-.27-1.875-1.24 1.942-11.21 5.772-20.53 9.018V375.9h11.73c1.58 3.094 11.69 21.292 39.8 40.565a78.777 78.777 0 0 0 8.82-5.224s-16.01-4.2-31.85-19.137c11.14-1.435 23.63-8.993 23.63-8.993zm-52.13-36.02c3-1.959 8.86-4.7 18.16-4.7 11.22 0 17.36 4.155 19.56 6.011v23.849h-37.72v-25.159zm36.37 13.859l-5.68-5.695-2.05 2.055h-17.59v-.02c-2.35 0-7.38.2-8.75-2.141l-.94.938 4.14 4.863h30.87zm-18.08-32.323a.221.221 0 0 1-.17-.029.664.664 0 0 1 .35-.138c1.57-.394 2.56-1.446 2.56-2.263a1.019 1.019 0 0 0-1.03-1.044c-.66 0-1.06.6-1.56 1.456a.58.58 0 0 1-.48.365c-.12 0-.95-.147-.95-1.584a9.122 9.122 0 0 1 .16-1.5 6.041 6.041 0 0 0 .13-.935c0-.039-.02-.079-.02-.108a1.421 1.421 0 0 1-.01-.207 1.2 1.2 0 0 1 .7-1.082c.18-.108.37-.2.54-.315a.3.3 0 0 0 .15-.246.337.337 0 0 0-.05-.176 1.921 1.921 0 0 1-.27-.611.043.043 0 0 1 .05-.049c.32 0 1.61.66 1.61 1.338a.428.428 0 0 1-.43.473 1.559 1.559 0 0 1-.46-.1 2.5 2.5 0 0 0-.74-.138.532.532 0 0 0-.63.542 1.016 1.016 0 0 0 .06.315 2.235 2.235 0 0 1 .1.609 5.082 5.082 0 0 1-.11.8 7.753 7.753 0 0 0-.13 1.23c0 .619.2.659.27.659a.478.478 0 0 0 .26-.109c.24-.157.49-.384.95-.668a2.166 2.166 0 0 1 1.13-.336 1.572 1.572 0 0 1 1.66 1.447 2.045 2.045 0 0 1-.73 1.437 4.906 4.906 0 0 1-2.914.968zm-77.67-.472c-.1 0-.15-.01-.15-.04a.988.988 0 0 1 .45-.177c1.56-.423 3.24-1.663 3.24-3.63a2.67 2.67 0 0 0-2.74-2.746h-.08c-.1 0-.19.01-.29.01a1.979 1.979 0 0 1 .42 1.4c0 1.889-1.51 4.269-2.55 4.269-.56 0-.77-.737-1.14-1.278a1.674 1.674 0 0 1-.24-.936 3.987 3.987 0 0 1 3.98-3.856 3.2 3.2 0 0 1 3.48 3.177 3.424 3.424 0 0 1-1.13 2.53 5.614 5.614 0 0 1-3.254 1.278zm-2.51-3.473a1.387 1.387 0 0 0 .87 1.515c.67 0 2.02-2.076 2.02-3.74 0-.256-.04-.806-.32-.806a.281.281 0 0 0-.08.01.277.277 0 0 1-.09.01 3.264 3.264 0 0 0-2.404 3.012zm167.99 3.03a.406.406 0 0 1-.35.443.592.592 0 0 1-.43-.286 2.819 2.819 0 0 0-.59-.55 1.91 1.91 0 0 1-1.56.806 1.163 1.163 0 0 1-1.33-.945c0-.59.84-.885 1.63-.885a3.542 3.542 0 0 1 .84.1 3.625 3.625 0 0 0 .15-1.181c0-2.095-.55-2.547-1.08-2.547-.7 0-1.56.727-2.54 2.036a10 10 0 0 0-.06 1.122 9.489 9.489 0 0 0 .15 1.731c.11.591-.13.876-.34.876s-.42-.246-.42-.767v-.119a5.821 5.821 0 0 0-.21-1.308 5.16 5.16 0 0 0-.34 1.308.651.651 0 0 1-.6.522.308.308 0 0 1-.29-.364 5.468 5.468 0 0 1 .99-2.125 1.4 1.4 0 0 0-.56-.738.414.414 0 0 1-.39-.443.327.327 0 0 1 .01-.1c.16-.807 1.31-.748 1.73-1.368a.6.6 0 0 1 .2-.216l.01-.04c.01-.138.01-.276.01-.4a1.449 1.449 0 0 0-.59-1.416.377.377 0 0 1-.16-.187.53.53 0 0 1 .47-.227c.12 0 .81.03.81 1.132a6.986 6.986 0 0 1-.11 1.024.386.386 0 0 1 .44.353.72.72 0 0 1-.16.4c-.17.246-.33.531-.5.836.05-.059.09-.118.12-.157a3.717 3.717 0 0 1 2.58-1.732c.98 0 1.66 1.023 1.66 2.9a4.122 4.122 0 0 1-.22 1.446 1.64 1.64 0 0 1 1.026 1.067zm-6.58-3.355c0 .048-.01.088-.01.128a2.6 2.6 0 0 0 .33.885l.16-.246a11.658 11.658 0 0 0 .61-1.22l.05-.61a4.9 4.9 0 0 0-1.144 1.064zm.75 1.151a4.038 4.038 0 0 0-.18.413 1.29 1.29 0 0 0 .25.492.13.13 0 0 0 .04-.118c.03-.344.07-.738.11-1.132a5.053 5.053 0 0 0-.224.346zm2.82 1.229a.874.874 0 0 0-.92.424.676.676 0 0 0 .73.4 1.333 1.333 0 0 0 1.13-.63 2.732 2.732 0 0 0-.944-.193zm9.22 1.241c-1.6 0-2.92-.709-2.92-1.7a1.369 1.369 0 0 1 .58-1.063c.02 0 .03.021.03.05a1.07 1.07 0 0 1-.1.285.785.785 0 0 0-.12.4c0 .649.99 1.112 2.17 1.112a4.116 4.116 0 0 0 1.05-.128c.27-.07.45-.2.66-.227a2.36 2.36 0 0 1 .24-.019.546.546 0 0 1 .65.422c-.004.544-1.174.869-2.244.869zm1.56-5.934a.5.5 0 0 1-.56.344 3.633 3.633 0 0 0-1.77.66.77.77 0 0 1-.32.2.025.025 0 0 1-.02-.03.808.808 0 0 1 .2-.3 1.343 1.343 0 0 0 .36-.542c0-.04-.04-.059-.12-.069-.11-.01-.22-.01-.33-.03a1.67 1.67 0 0 1-1.4-.954c0-.01 0-.02.03-.02a1.948 1.948 0 0 1 .33.089 4.236 4.236 0 0 0 1.3.167c.31 0 .61-.019.94-.039.16-.01.32-.02.48-.02a.822.822 0 0 1 .876.545zM991.357 434.634c12.553 0 16.283 10.94 16.783 15.442.98 8.744-1.56 12.884-9.652 23.483-5.27 6.9-30.233 25.448-34.6 35.584-.544 1.6-.866 3.472.309 4.464 1.148.969 3.321-.307 4.207-.868 5.381-3.41 13.738-4.083 25.56-1.429 7.293 1.637 14.643 2.463 21.6.521 2.34-.652 4.09-1.318 5.06-2.594a3.245 3.245 0 0 0 .91-2.519 2.616 2.616 0 0 0-1.21-1.557c-1.07-.748-2.48-.591-6.4 1.378-8.5 4.666-16.853-1.056-28.76-1.737a50.906 50.906 0 0 0-12.825 1.207c-1.034.237-2.359.7-2.854-.017-.363-.528.795-1.778 1.143-2.376 2.288-3.939 18.272-16.754 29.986-26.68 6.34-5.371 18.75-14.6 16.64-29.827-1.56-11.3-11.57-19.067-23.861-18.477-10.822.52-21.644 8.8-20.506 20.287.5 5 3.635 10.6 5.181 11.976a.708.708 0 0 0 .859.15.607.607 0 0 0 .231-.748 35.791 35.791 0 0 1-2.9-9.2c-1.242-10.87 6.314-16.463 15.099-16.463z" transform="translate(-598 -320)"/></svg>